<mxfile host="app.diagrams.net" modified="2024-03-15T16:04:37.634Z" agent="Mozilla/5.0 (Windows NT 10.0; Win64; x64) AppleWebKit/537.36 (KHTML, like Gecko) Chrome/122.0.0.0 Safari/537.36" etag="OmSP6SUnG6MMTMEQ9yJf" version="24.0.5" type="device">
  <diagram name="PÃ¡gina-1" id="526TE-2jP5vTqQstKqOC">
    <mxGraphModel dx="1820" dy="568" grid="1" gridSize="10" guides="1" tooltips="1" connect="1" arrows="1" fold="1" page="1" pageScale="1" pageWidth="827" pageHeight="1169" math="0" shadow="0">
      <root>
        <mxCell id="0" />
        <mxCell id="1" parent="0" />
        <mxCell id="-fhKCmuMDrOjXcrdq4xB-1" value="&lt;font style=&quot;font-size: 20px;&quot;&gt;Product&lt;/font&gt;" style="rounded=0;whiteSpace=wrap;html=1;" parent="1" vertex="1">
          <mxGeometry x="650" y="440" width="120" height="60" as="geometry" />
        </mxCell>
        <mxCell id="-fhKCmuMDrOjXcrdq4xB-2" value="&lt;u&gt;id&lt;/u&gt;" style="ellipse;whiteSpace=wrap;html=1;" parent="1" vertex="1">
          <mxGeometry x="830" y="513.37" width="80" height="40" as="geometry" />
        </mxCell>
        <mxCell id="-fhKCmuMDrOjXcrdq4xB-3" value="" style="endArrow=none;html=1;rounded=0;" parent="1" source="-fhKCmuMDrOjXcrdq4xB-1" target="-fhKCmuMDrOjXcrdq4xB-2" edge="1">
          <mxGeometry width="50" height="50" relative="1" as="geometry">
            <mxPoint x="747" y="490" as="sourcePoint" />
            <mxPoint x="797" y="440" as="targetPoint" />
          </mxGeometry>
        </mxCell>
        <mxCell id="-fhKCmuMDrOjXcrdq4xB-12" value="&lt;span style=&quot;font-size: 20px;&quot;&gt;Client&lt;/span&gt;" style="rounded=0;whiteSpace=wrap;html=1;" parent="1" vertex="1">
          <mxGeometry x="350" y="830" width="120" height="60" as="geometry" />
        </mxCell>
        <mxCell id="-fhKCmuMDrOjXcrdq4xB-13" value="&lt;u&gt;id&lt;/u&gt;" style="ellipse;whiteSpace=wrap;html=1;" parent="1" vertex="1">
          <mxGeometry x="450" y="1071.29" width="80" height="40" as="geometry" />
        </mxCell>
        <mxCell id="-fhKCmuMDrOjXcrdq4xB-14" value="" style="endArrow=none;html=1;rounded=0;" parent="1" source="-fhKCmuMDrOjXcrdq4xB-13" target="jjcyhBxNHtoWeeFB3hzC-1" edge="1">
          <mxGeometry width="50" height="50" relative="1" as="geometry">
            <mxPoint x="450" y="703.27" as="sourcePoint" />
            <mxPoint x="458.2971456452792" y="1143.27" as="targetPoint" />
          </mxGeometry>
        </mxCell>
        <mxCell id="-fhKCmuMDrOjXcrdq4xB-15" value="name" style="ellipse;whiteSpace=wrap;html=1;" parent="1" vertex="1">
          <mxGeometry x="390" y="1111.2900000000002" width="80" height="40" as="geometry" />
        </mxCell>
        <mxCell id="-fhKCmuMDrOjXcrdq4xB-16" value="" style="endArrow=none;html=1;rounded=0;" parent="1" source="-fhKCmuMDrOjXcrdq4xB-15" target="jjcyhBxNHtoWeeFB3hzC-1" edge="1">
          <mxGeometry width="50" height="50" relative="1" as="geometry">
            <mxPoint x="149" y="916.36" as="sourcePoint" />
            <mxPoint x="280" y="1203.6327272727272" as="targetPoint" />
          </mxGeometry>
        </mxCell>
        <mxCell id="-fhKCmuMDrOjXcrdq4xB-17" value="password" style="ellipse;whiteSpace=wrap;html=1;" parent="1" vertex="1">
          <mxGeometry x="580" y="975" width="80" height="40" as="geometry" />
        </mxCell>
        <mxCell id="-fhKCmuMDrOjXcrdq4xB-18" value="" style="endArrow=none;html=1;rounded=0;" parent="1" source="-fhKCmuMDrOjXcrdq4xB-17" target="jjcyhBxNHtoWeeFB3hzC-1" edge="1">
          <mxGeometry width="50" height="50" relative="1" as="geometry">
            <mxPoint x="418" y="911" as="sourcePoint" />
            <mxPoint x="355" y="1086" as="targetPoint" />
          </mxGeometry>
        </mxCell>
        <mxCell id="-fhKCmuMDrOjXcrdq4xB-19" value="email" style="ellipse;whiteSpace=wrap;html=1;" parent="1" vertex="1">
          <mxGeometry x="520.65" y="1035" width="80" height="40" as="geometry" />
        </mxCell>
        <mxCell id="-fhKCmuMDrOjXcrdq4xB-20" value="" style="endArrow=none;html=1;rounded=0;" parent="1" source="jjcyhBxNHtoWeeFB3hzC-1" target="-fhKCmuMDrOjXcrdq4xB-19" edge="1">
          <mxGeometry width="50" height="50" relative="1" as="geometry">
            <mxPoint x="500" y="1145.997272727273" as="sourcePoint" />
            <mxPoint x="520.4023970641597" y="1136.7234558799273" as="targetPoint" />
          </mxGeometry>
        </mxCell>
        <mxCell id="-fhKCmuMDrOjXcrdq4xB-21" value="" style="endArrow=none;html=1;rounded=0;" parent="1" source="-fhKCmuMDrOjXcrdq4xB-23" target="jjcyhBxNHtoWeeFB3hzC-1" edge="1">
          <mxGeometry width="50" height="50" relative="1" as="geometry">
            <mxPoint x="483.67" y="835" as="sourcePoint" />
            <mxPoint x="407.0033333333335" y="1135" as="targetPoint" />
          </mxGeometry>
        </mxCell>
        <mxCell id="-fhKCmuMDrOjXcrdq4xB-23" value="avatar url" style="ellipse;whiteSpace=wrap;html=1;" parent="1" vertex="1">
          <mxGeometry x="340" y="915" width="80" height="40" as="geometry" />
        </mxCell>
        <mxCell id="-fhKCmuMDrOjXcrdq4xB-24" value="&lt;span style=&quot;font-size: 20px;&quot;&gt;List&lt;/span&gt;" style="rounded=0;whiteSpace=wrap;html=1;" parent="1" vertex="1">
          <mxGeometry x="350" y="440" width="120" height="60" as="geometry" />
        </mxCell>
        <mxCell id="-fhKCmuMDrOjXcrdq4xB-25" value="History" style="rhombus;whiteSpace=wrap;html=1;shadow=0;strokeColor=default;gradientColor=none;fillColor=default;fillStyle=auto;" parent="1" vertex="1">
          <mxGeometry x="670" y="533.37" width="80" height="80" as="geometry" />
        </mxCell>
        <mxCell id="-fhKCmuMDrOjXcrdq4xB-26" value="" style="endArrow=none;html=1;rounded=0;exitX=0.5;exitY=1;exitDx=0;exitDy=0;entryX=0.5;entryY=0;entryDx=0;entryDy=0;shape=link;" parent="1" source="-fhKCmuMDrOjXcrdq4xB-1" target="-fhKCmuMDrOjXcrdq4xB-25" edge="1">
          <mxGeometry width="50" height="50" relative="1" as="geometry">
            <mxPoint x="660" y="673.37" as="sourcePoint" />
            <mxPoint x="740" y="763.37" as="targetPoint" />
          </mxGeometry>
        </mxCell>
        <mxCell id="-fhKCmuMDrOjXcrdq4xB-29" value="N" style="edgeLabel;html=1;align=center;verticalAlign=middle;resizable=0;points=[];" parent="-fhKCmuMDrOjXcrdq4xB-26" vertex="1" connectable="0">
          <mxGeometry x="-0.3167" y="-3" relative="1" as="geometry">
            <mxPoint x="13" y="19" as="offset" />
          </mxGeometry>
        </mxCell>
        <mxCell id="-fhKCmuMDrOjXcrdq4xB-31" value="" style="rhombus;whiteSpace=wrap;html=1;" parent="1" vertex="1">
          <mxGeometry x="370" y="638.02" width="80" height="80" as="geometry" />
        </mxCell>
        <mxCell id="-fhKCmuMDrOjXcrdq4xB-32" value="1" style="endArrow=none;html=1;rounded=0;entryX=0.5;entryY=1;entryDx=0;entryDy=0;" parent="1" source="-fhKCmuMDrOjXcrdq4xB-12" target="-fhKCmuMDrOjXcrdq4xB-31" edge="1">
          <mxGeometry x="0.786" y="-10" width="50" height="50" relative="1" as="geometry">
            <mxPoint x="410" y="830" as="sourcePoint" />
            <mxPoint x="410" y="680" as="targetPoint" />
            <mxPoint as="offset" />
          </mxGeometry>
        </mxCell>
        <mxCell id="-fhKCmuMDrOjXcrdq4xB-34" value="" style="endArrow=none;html=1;rounded=0;strokeColor=default;shape=link;exitX=0.5;exitY=0;exitDx=0;exitDy=0;entryX=0.5;entryY=1;entryDx=0;entryDy=0;" parent="1" source="-fhKCmuMDrOjXcrdq4xB-31" target="-fhKCmuMDrOjXcrdq4xB-24" edge="1">
          <mxGeometry width="50" height="50" relative="1" as="geometry">
            <mxPoint x="353" y="716.36" as="sourcePoint" />
            <mxPoint x="483" y="566.36" as="targetPoint" />
          </mxGeometry>
        </mxCell>
        <mxCell id="-fhKCmuMDrOjXcrdq4xB-35" value="N" style="edgeLabel;html=1;align=center;verticalAlign=middle;resizable=0;points=[];" parent="-fhKCmuMDrOjXcrdq4xB-34" vertex="1" connectable="0">
          <mxGeometry x="-0.0167" y="-1" relative="1" as="geometry">
            <mxPoint x="9" y="60" as="offset" />
          </mxGeometry>
        </mxCell>
        <mxCell id="-fhKCmuMDrOjXcrdq4xB-36" value="Entries" style="rhombus;whiteSpace=wrap;html=1;" parent="1" vertex="1">
          <mxGeometry x="520" y="430" width="80" height="80" as="geometry" />
        </mxCell>
        <mxCell id="-fhKCmuMDrOjXcrdq4xB-41" value="" style="endArrow=none;html=1;rounded=0;shape=link;" parent="1" source="-fhKCmuMDrOjXcrdq4xB-1" target="-fhKCmuMDrOjXcrdq4xB-36" edge="1">
          <mxGeometry width="50" height="50" relative="1" as="geometry">
            <mxPoint x="480" y="250" as="sourcePoint" />
            <mxPoint x="520" y="250" as="targetPoint" />
          </mxGeometry>
        </mxCell>
        <mxCell id="-fhKCmuMDrOjXcrdq4xB-42" value="N" style="edgeLabel;html=1;align=center;verticalAlign=middle;resizable=0;points=[];" parent="-fhKCmuMDrOjXcrdq4xB-41" vertex="1" connectable="0">
          <mxGeometry x="-0.3167" y="-3" relative="1" as="geometry">
            <mxPoint x="-19" y="-7" as="offset" />
          </mxGeometry>
        </mxCell>
        <mxCell id="-fhKCmuMDrOjXcrdq4xB-43" value="" style="endArrow=none;html=1;rounded=0;exitX=1;exitY=0.5;exitDx=0;exitDy=0;" parent="1" source="-fhKCmuMDrOjXcrdq4xB-24" target="-fhKCmuMDrOjXcrdq4xB-36" edge="1">
          <mxGeometry width="50" height="50" relative="1" as="geometry">
            <mxPoint x="410" y="440" as="sourcePoint" />
            <mxPoint x="420" y="330" as="targetPoint" />
          </mxGeometry>
        </mxCell>
        <mxCell id="-fhKCmuMDrOjXcrdq4xB-44" value="N" style="edgeLabel;html=1;align=center;verticalAlign=middle;resizable=0;points=[];" parent="-fhKCmuMDrOjXcrdq4xB-43" vertex="1" connectable="0">
          <mxGeometry x="-0.3167" y="-3" relative="1" as="geometry">
            <mxPoint x="23" y="-13" as="offset" />
          </mxGeometry>
        </mxCell>
        <mxCell id="-fhKCmuMDrOjXcrdq4xB-47" value="&lt;font style=&quot;font-size: 20px;&quot;&gt;Store&lt;/font&gt;" style="rounded=0;whiteSpace=wrap;html=1;" parent="1" vertex="1">
          <mxGeometry x="650" y="650" width="120" height="60" as="geometry" />
        </mxCell>
        <mxCell id="-fhKCmuMDrOjXcrdq4xB-48" value="" style="endArrow=none;html=1;rounded=0;shape=link;entryX=0.5;entryY=1;entryDx=0;entryDy=0;exitX=0.5;exitY=0;exitDx=0;exitDy=0;" parent="1" source="-fhKCmuMDrOjXcrdq4xB-47" target="-fhKCmuMDrOjXcrdq4xB-25" edge="1">
          <mxGeometry width="50" height="50" relative="1" as="geometry">
            <mxPoint x="820" y="673.37" as="sourcePoint" />
            <mxPoint x="790" y="723.37" as="targetPoint" />
          </mxGeometry>
        </mxCell>
        <mxCell id="-fhKCmuMDrOjXcrdq4xB-49" value="N" style="edgeLabel;html=1;align=center;verticalAlign=middle;resizable=0;points=[];" parent="-fhKCmuMDrOjXcrdq4xB-48" vertex="1" connectable="0">
          <mxGeometry x="-0.0167" y="-1" relative="1" as="geometry">
            <mxPoint x="9" y="-12" as="offset" />
          </mxGeometry>
        </mxCell>
        <mxCell id="-fhKCmuMDrOjXcrdq4xB-50" value="" style="endArrow=none;html=1;rounded=0;" parent="1" source="YiIuWlqVmYQCmq5VNe0C-8" target="-fhKCmuMDrOjXcrdq4xB-47" edge="1">
          <mxGeometry width="50" height="50" relative="1" as="geometry">
            <mxPoint x="619.9936239738167" y="678.3770859283375" as="sourcePoint" />
            <mxPoint x="670" y="743.37" as="targetPoint" />
          </mxGeometry>
        </mxCell>
        <mxCell id="-fhKCmuMDrOjXcrdq4xB-60" value="&lt;u&gt;id&lt;/u&gt;" style="ellipse;whiteSpace=wrap;html=1;" parent="1" vertex="1">
          <mxGeometry x="370" y="380" width="80" height="40" as="geometry" />
        </mxCell>
        <mxCell id="-fhKCmuMDrOjXcrdq4xB-61" value="" style="endArrow=none;html=1;rounded=0;" parent="1" source="-fhKCmuMDrOjXcrdq4xB-60" target="-fhKCmuMDrOjXcrdq4xB-24" edge="1">
          <mxGeometry width="50" height="50" relative="1" as="geometry">
            <mxPoint x="209" y="533" as="sourcePoint" />
            <mxPoint x="181" y="510" as="targetPoint" />
          </mxGeometry>
        </mxCell>
        <mxCell id="-fhKCmuMDrOjXcrdq4xB-74" value="" style="rounded=0;whiteSpace=wrap;html=1;fillColor=none;" parent="1" vertex="1">
          <mxGeometry x="358" y="450" width="104" height="40" as="geometry" />
        </mxCell>
        <mxCell id="-fhKCmuMDrOjXcrdq4xB-75" value="Has" style="rhombus;whiteSpace=wrap;html=1;" parent="1" vertex="1">
          <mxGeometry x="380" y="648.02" width="60" height="60" as="geometry" />
        </mxCell>
        <mxCell id="-fhKCmuMDrOjXcrdq4xB-77" value="&lt;u&gt;date&lt;/u&gt;" style="ellipse;whiteSpace=wrap;html=1;" parent="1" vertex="1">
          <mxGeometry x="750" y="610" width="80" height="40" as="geometry" />
        </mxCell>
        <mxCell id="-fhKCmuMDrOjXcrdq4xB-78" value="" style="endArrow=none;html=1;rounded=0;" parent="1" source="-fhKCmuMDrOjXcrdq4xB-77" target="-fhKCmuMDrOjXcrdq4xB-25" edge="1">
          <mxGeometry width="50" height="50" relative="1" as="geometry">
            <mxPoint x="720" y="543.37" as="sourcePoint" />
            <mxPoint x="727" y="583.37" as="targetPoint" />
          </mxGeometry>
        </mxCell>
        <mxCell id="-fhKCmuMDrOjXcrdq4xB-79" value="" style="endArrow=none;html=1;rounded=0;" parent="1" source="-fhKCmuMDrOjXcrdq4xB-80" target="-fhKCmuMDrOjXcrdq4xB-25" edge="1">
          <mxGeometry width="50" height="50" relative="1" as="geometry">
            <mxPoint x="550" y="877.37" as="sourcePoint" />
            <mxPoint x="744" y="743.37" as="targetPoint" />
          </mxGeometry>
        </mxCell>
        <mxCell id="-fhKCmuMDrOjXcrdq4xB-80" value="Price" style="ellipse;whiteSpace=wrap;html=1;" parent="1" vertex="1">
          <mxGeometry x="840" y="597.52" width="80" height="40" as="geometry" />
        </mxCell>
        <mxCell id="pdK5dS0LOdlDphh9CW6W-1" value="" style="endArrow=none;html=1;rounded=0;" parent="1" source="-fhKCmuMDrOjXcrdq4xB-47" target="pdK5dS0LOdlDphh9CW6W-2" edge="1">
          <mxGeometry width="50" height="50" relative="1" as="geometry">
            <mxPoint x="890" y="613.37" as="sourcePoint" />
            <mxPoint x="1020" y="683.37" as="targetPoint" />
          </mxGeometry>
        </mxCell>
        <mxCell id="pdK5dS0LOdlDphh9CW6W-2" value="open time" style="ellipse;whiteSpace=wrap;html=1;" parent="1" vertex="1">
          <mxGeometry x="610" y="600" width="80" height="40" as="geometry" />
        </mxCell>
        <mxCell id="pdK5dS0LOdlDphh9CW6W-3" value="" style="endArrow=none;html=1;rounded=0;" parent="1" source="-fhKCmuMDrOjXcrdq4xB-47" target="pdK5dS0LOdlDphh9CW6W-4" edge="1">
          <mxGeometry width="50" height="50" relative="1" as="geometry">
            <mxPoint x="950" y="658.37" as="sourcePoint" />
            <mxPoint x="979" y="693.37" as="targetPoint" />
          </mxGeometry>
        </mxCell>
        <mxCell id="pdK5dS0LOdlDphh9CW6W-4" value="close time" style="ellipse;whiteSpace=wrap;html=1;" parent="1" vertex="1">
          <mxGeometry x="740" y="763.37" width="80" height="40" as="geometry" />
        </mxCell>
        <mxCell id="pdK5dS0LOdlDphh9CW6W-5" value="&lt;span&gt;username&lt;/span&gt;" style="ellipse;whiteSpace=wrap;html=1;fontStyle=0" parent="1" vertex="1">
          <mxGeometry x="510" y="1111.29" width="80" height="40" as="geometry" />
        </mxCell>
        <mxCell id="pdK5dS0LOdlDphh9CW6W-6" value="" style="endArrow=none;html=1;rounded=0;" parent="1" source="pdK5dS0LOdlDphh9CW6W-5" target="jjcyhBxNHtoWeeFB3hzC-1" edge="1">
          <mxGeometry width="50" height="50" relative="1" as="geometry">
            <mxPoint x="463" y="732.36" as="sourcePoint" />
            <mxPoint x="270" y="1106" as="targetPoint" />
          </mxGeometry>
        </mxCell>
        <mxCell id="pdK5dS0LOdlDphh9CW6W-9" value="Description" style="ellipse;whiteSpace=wrap;html=1;" parent="1" vertex="1">
          <mxGeometry x="740" y="503.37" width="80" height="40" as="geometry" />
        </mxCell>
        <mxCell id="pdK5dS0LOdlDphh9CW6W-10" value="" style="endArrow=none;html=1;rounded=0;" parent="1" source="pdK5dS0LOdlDphh9CW6W-9" target="-fhKCmuMDrOjXcrdq4xB-1" edge="1">
          <mxGeometry width="50" height="50" relative="1" as="geometry">
            <mxPoint x="787" y="450" as="sourcePoint" />
            <mxPoint x="787" y="410" as="targetPoint" />
          </mxGeometry>
        </mxCell>
        <mxCell id="pdK5dS0LOdlDphh9CW6W-15" value="unit" style="ellipse;whiteSpace=wrap;html=1;" parent="1" vertex="1">
          <mxGeometry x="747" y="367.5" width="80" height="40" as="geometry" />
        </mxCell>
        <mxCell id="pdK5dS0LOdlDphh9CW6W-16" value="" style="endArrow=none;html=1;rounded=0;" parent="1" source="-fhKCmuMDrOjXcrdq4xB-1" target="pdK5dS0LOdlDphh9CW6W-15" edge="1">
          <mxGeometry width="50" height="50" relative="1" as="geometry">
            <mxPoint x="787" y="450" as="sourcePoint" />
            <mxPoint x="787" y="410" as="targetPoint" />
          </mxGeometry>
        </mxCell>
        <mxCell id="pdK5dS0LOdlDphh9CW6W-17" value="image url" style="ellipse;whiteSpace=wrap;html=1;" parent="1" vertex="1">
          <mxGeometry x="490" y="327.5" width="80" height="40" as="geometry" />
        </mxCell>
        <mxCell id="pdK5dS0LOdlDphh9CW6W-18" value="" style="endArrow=none;html=1;rounded=0;" parent="1" source="-fhKCmuMDrOjXcrdq4xB-1" target="pdK5dS0LOdlDphh9CW6W-17" edge="1">
          <mxGeometry width="50" height="50" relative="1" as="geometry">
            <mxPoint x="757" y="450" as="sourcePoint" />
            <mxPoint x="725" y="418" as="targetPoint" />
          </mxGeometry>
        </mxCell>
        <mxCell id="pdK5dS0LOdlDphh9CW6W-19" value="Has" style="rhombus;whiteSpace=wrap;html=1;" parent="1" vertex="1">
          <mxGeometry x="294" y="955" width="80" height="80" as="geometry" />
        </mxCell>
        <mxCell id="pdK5dS0LOdlDphh9CW6W-20" value="" style="endArrow=none;html=1;rounded=0;" parent="1" source="pdK5dS0LOdlDphh9CW6W-19" target="jjcyhBxNHtoWeeFB3hzC-1" edge="1">
          <mxGeometry width="50" height="50" relative="1" as="geometry">
            <mxPoint x="684" y="765" as="sourcePoint" />
            <mxPoint x="420" y="995" as="targetPoint" />
          </mxGeometry>
        </mxCell>
        <mxCell id="pdK5dS0LOdlDphh9CW6W-21" value="1" style="edgeLabel;html=1;align=center;verticalAlign=middle;resizable=0;points=[];" parent="pdK5dS0LOdlDphh9CW6W-20" vertex="1" connectable="0">
          <mxGeometry x="-0.3167" y="-3" relative="1" as="geometry">
            <mxPoint x="-15" y="-13" as="offset" />
          </mxGeometry>
        </mxCell>
        <mxCell id="pdK5dS0LOdlDphh9CW6W-22" value="" style="endArrow=none;html=1;rounded=0;" parent="1" source="pdK5dS0LOdlDphh9CW6W-24" target="pdK5dS0LOdlDphh9CW6W-19" edge="1">
          <mxGeometry width="50" height="50" relative="1" as="geometry">
            <mxPoint x="294" y="255" as="sourcePoint" />
            <mxPoint x="304" y="405" as="targetPoint" />
          </mxGeometry>
        </mxCell>
        <mxCell id="pdK5dS0LOdlDphh9CW6W-23" value="1" style="edgeLabel;html=1;align=center;verticalAlign=middle;resizable=0;points=[];" parent="pdK5dS0LOdlDphh9CW6W-22" vertex="1" connectable="0">
          <mxGeometry x="-0.3167" y="-3" relative="1" as="geometry">
            <mxPoint x="35" y="-13" as="offset" />
          </mxGeometry>
        </mxCell>
        <mxCell id="pdK5dS0LOdlDphh9CW6W-24" value="&lt;span style=&quot;font-size: 20px;&quot;&gt;Token&lt;/span&gt;" style="rounded=0;whiteSpace=wrap;html=1;" parent="1" vertex="1">
          <mxGeometry x="115" y="965" width="120" height="60" as="geometry" />
        </mxCell>
        <mxCell id="pdK5dS0LOdlDphh9CW6W-28" value="expires at" style="ellipse;whiteSpace=wrap;html=1;" parent="1" vertex="1">
          <mxGeometry x="135" y="1055" width="80" height="40" as="geometry" />
        </mxCell>
        <mxCell id="pdK5dS0LOdlDphh9CW6W-29" value="" style="endArrow=none;html=1;rounded=0;" parent="1" source="pdK5dS0LOdlDphh9CW6W-24" target="pdK5dS0LOdlDphh9CW6W-28" edge="1">
          <mxGeometry width="50" height="50" relative="1" as="geometry">
            <mxPoint x="244" y="255" as="sourcePoint" />
            <mxPoint x="210" y="255" as="targetPoint" />
          </mxGeometry>
        </mxCell>
        <mxCell id="pdK5dS0LOdlDphh9CW6W-32" value="&lt;u&gt;access Token&lt;/u&gt;" style="ellipse;whiteSpace=wrap;html=1;" parent="1" vertex="1">
          <mxGeometry x="135" y="890" width="80" height="40" as="geometry" />
        </mxCell>
        <mxCell id="pdK5dS0LOdlDphh9CW6W-33" value="" style="endArrow=none;html=1;rounded=0;" parent="1" source="pdK5dS0LOdlDphh9CW6W-32" target="pdK5dS0LOdlDphh9CW6W-24" edge="1">
          <mxGeometry width="50" height="50" relative="1" as="geometry">
            <mxPoint x="175" y="935" as="sourcePoint" />
            <mxPoint x="304" y="195" as="targetPoint" />
          </mxGeometry>
        </mxCell>
        <mxCell id="pdK5dS0LOdlDphh9CW6W-34" value="created at" style="ellipse;whiteSpace=wrap;html=1;" parent="1" vertex="1">
          <mxGeometry x="380" y="1035" width="80" height="40" as="geometry" />
        </mxCell>
        <mxCell id="pdK5dS0LOdlDphh9CW6W-35" value="" style="endArrow=none;html=1;rounded=0;" parent="1" source="pdK5dS0LOdlDphh9CW6W-34" target="jjcyhBxNHtoWeeFB3hzC-1" edge="1">
          <mxGeometry width="50" height="50" relative="1" as="geometry">
            <mxPoint x="420" y="605" as="sourcePoint" />
            <mxPoint x="450" y="1075" as="targetPoint" />
          </mxGeometry>
        </mxCell>
        <mxCell id="pdK5dS0LOdlDphh9CW6W-48" value="&lt;font style=&quot;font-size: 20px;&quot;&gt;Promotion&lt;/font&gt;" style="rounded=0;whiteSpace=wrap;html=1;" parent="1" vertex="1">
          <mxGeometry x="960" y="543.37" width="120" height="60" as="geometry" />
        </mxCell>
        <mxCell id="pdK5dS0LOdlDphh9CW6W-49" value="" style="endArrow=none;html=1;rounded=0;entryX=0;entryY=0.5;entryDx=0;entryDy=0;exitX=1;exitY=0.5;exitDx=0;exitDy=0;" parent="1" source="-fhKCmuMDrOjXcrdq4xB-25" target="pdK5dS0LOdlDphh9CW6W-48" edge="1">
          <mxGeometry width="50" height="50" relative="1" as="geometry">
            <mxPoint x="757" y="576.63" as="sourcePoint" />
            <mxPoint x="687" y="586.63" as="targetPoint" />
          </mxGeometry>
        </mxCell>
        <mxCell id="pdK5dS0LOdlDphh9CW6W-50" value="1" style="edgeLabel;html=1;align=center;verticalAlign=middle;resizable=0;points=[];" parent="pdK5dS0LOdlDphh9CW6W-49" vertex="1" connectable="0">
          <mxGeometry x="0.2418" y="-2" relative="1" as="geometry">
            <mxPoint x="-121" y="-12" as="offset" />
          </mxGeometry>
        </mxCell>
        <mxCell id="pdK5dS0LOdlDphh9CW6W-55" value="&lt;u&gt;id&lt;/u&gt;" style="ellipse;whiteSpace=wrap;html=1;" parent="1" vertex="1">
          <mxGeometry x="760" y="708.02" width="80" height="40" as="geometry" />
        </mxCell>
        <mxCell id="pdK5dS0LOdlDphh9CW6W-57" value="" style="endArrow=none;html=1;rounded=0;" parent="1" source="-fhKCmuMDrOjXcrdq4xB-47" target="pdK5dS0LOdlDphh9CW6W-55" edge="1">
          <mxGeometry width="50" height="50" relative="1" as="geometry">
            <mxPoint x="780" y="690" as="sourcePoint" />
            <mxPoint x="820" y="690" as="targetPoint" />
          </mxGeometry>
        </mxCell>
        <mxCell id="pdK5dS0LOdlDphh9CW6W-58" value="Percentage" style="ellipse;whiteSpace=wrap;html=1;" parent="1" vertex="1">
          <mxGeometry x="1090" y="593.37" width="80" height="40" as="geometry" />
        </mxCell>
        <mxCell id="pdK5dS0LOdlDphh9CW6W-59" value="" style="endArrow=none;html=1;rounded=0;" parent="1" source="pdK5dS0LOdlDphh9CW6W-48" target="pdK5dS0LOdlDphh9CW6W-58" edge="1">
          <mxGeometry width="50" height="50" relative="1" as="geometry">
            <mxPoint x="1030" y="556.63" as="sourcePoint" />
            <mxPoint x="1030" y="516.63" as="targetPoint" />
          </mxGeometry>
        </mxCell>
        <mxCell id="5_vpQat-3BluKUmq6hPM-4" value="" style="rhombus;whiteSpace=wrap;html=1;" parent="1" vertex="1">
          <mxGeometry x="670" y="327.5" width="80" height="80" as="geometry" />
        </mxCell>
        <mxCell id="5_vpQat-3BluKUmq6hPM-5" value="" style="endArrow=none;html=1;rounded=0;entryX=0.5;entryY=1;entryDx=0;entryDy=0;exitX=0.5;exitY=0;exitDx=0;exitDy=0;" parent="1" source="-fhKCmuMDrOjXcrdq4xB-1" target="5_vpQat-3BluKUmq6hPM-4" edge="1">
          <mxGeometry width="50" height="50" relative="1" as="geometry">
            <mxPoint x="600" y="540" as="sourcePoint" />
            <mxPoint x="650" y="490" as="targetPoint" />
          </mxGeometry>
        </mxCell>
        <mxCell id="5_vpQat-3BluKUmq6hPM-7" value="1" style="edgeLabel;html=1;align=center;verticalAlign=middle;resizable=0;points=[];" parent="5_vpQat-3BluKUmq6hPM-5" vertex="1" connectable="0">
          <mxGeometry x="-0.0574" y="-2" relative="1" as="geometry">
            <mxPoint x="-12" y="-15" as="offset" />
          </mxGeometry>
        </mxCell>
        <mxCell id="5_vpQat-3BluKUmq6hPM-8" value="&lt;span style=&quot;font-size: 20px;&quot;&gt;Category&lt;/span&gt;" style="rounded=0;whiteSpace=wrap;html=1;" parent="1" vertex="1">
          <mxGeometry x="650" y="230" width="120" height="60" as="geometry" />
        </mxCell>
        <mxCell id="5_vpQat-3BluKUmq6hPM-9" value="" style="endArrow=none;html=1;rounded=0;entryX=0.5;entryY=1;entryDx=0;entryDy=0;exitX=0.5;exitY=0;exitDx=0;exitDy=0;" parent="1" source="5_vpQat-3BluKUmq6hPM-4" target="5_vpQat-3BluKUmq6hPM-8" edge="1">
          <mxGeometry width="50" height="50" relative="1" as="geometry">
            <mxPoint x="720" y="450" as="sourcePoint" />
            <mxPoint x="720" y="370" as="targetPoint" />
          </mxGeometry>
        </mxCell>
        <mxCell id="5_vpQat-3BluKUmq6hPM-10" value="1" style="edgeLabel;html=1;align=center;verticalAlign=middle;resizable=0;points=[];" parent="5_vpQat-3BluKUmq6hPM-9" vertex="1" connectable="0">
          <mxGeometry x="-0.0574" y="-2" relative="1" as="geometry">
            <mxPoint x="-12" y="10" as="offset" />
          </mxGeometry>
        </mxCell>
        <mxCell id="5_vpQat-3BluKUmq6hPM-11" value="&lt;span&gt;name&lt;/span&gt;" style="ellipse;whiteSpace=wrap;html=1;fontStyle=0" parent="1" vertex="1">
          <mxGeometry x="760" y="180" width="80" height="40" as="geometry" />
        </mxCell>
        <mxCell id="5_vpQat-3BluKUmq6hPM-12" value="" style="endArrow=none;html=1;rounded=0;" parent="1" source="5_vpQat-3BluKUmq6hPM-8" target="5_vpQat-3BluKUmq6hPM-11" edge="1">
          <mxGeometry width="50" height="50" relative="1" as="geometry">
            <mxPoint x="749" y="450" as="sourcePoint" />
            <mxPoint x="782" y="415" as="targetPoint" />
          </mxGeometry>
        </mxCell>
        <mxCell id="5_vpQat-3BluKUmq6hPM-15" value="discount" style="ellipse;whiteSpace=wrap;html=1;dashed=1;labelBackgroundColor=none;" parent="1" vertex="1">
          <mxGeometry x="1090" y="510" width="80" height="40" as="geometry" />
        </mxCell>
        <mxCell id="5_vpQat-3BluKUmq6hPM-16" value="" style="endArrow=none;html=1;rounded=0;" parent="1" source="pdK5dS0LOdlDphh9CW6W-48" target="5_vpQat-3BluKUmq6hPM-15" edge="1">
          <mxGeometry width="50" height="50" relative="1" as="geometry">
            <mxPoint x="1060" y="556.63" as="sourcePoint" />
            <mxPoint x="1089" y="533.63" as="targetPoint" />
          </mxGeometry>
        </mxCell>
        <mxCell id="5_vpQat-3BluKUmq6hPM-17" value="&lt;u&gt;id&lt;/u&gt;" style="ellipse;whiteSpace=wrap;html=1;" parent="1" vertex="1">
          <mxGeometry x="670" y="160" width="80" height="40" as="geometry" />
        </mxCell>
        <mxCell id="5_vpQat-3BluKUmq6hPM-18" value="order" style="ellipse;whiteSpace=wrap;html=1;" parent="1" vertex="1">
          <mxGeometry x="580" y="180" width="80" height="40" as="geometry" />
        </mxCell>
        <mxCell id="5_vpQat-3BluKUmq6hPM-19" value="Children" style="rhombus;whiteSpace=wrap;html=1;" parent="1" vertex="1">
          <mxGeometry x="827" y="220" width="80" height="80" as="geometry" />
        </mxCell>
        <mxCell id="5_vpQat-3BluKUmq6hPM-22" value="" style="endArrow=none;html=1;rounded=0;entryX=0.5;entryY=1;entryDx=0;entryDy=0;exitX=1;exitY=1;exitDx=0;exitDy=0;" parent="1" source="5_vpQat-3BluKUmq6hPM-8" target="5_vpQat-3BluKUmq6hPM-19" edge="1">
          <mxGeometry width="50" height="50" relative="1" as="geometry">
            <mxPoint x="780" y="480" as="sourcePoint" />
            <mxPoint x="837" y="480" as="targetPoint" />
          </mxGeometry>
        </mxCell>
        <mxCell id="5_vpQat-3BluKUmq6hPM-23" value="N" style="edgeLabel;html=1;align=center;verticalAlign=middle;resizable=0;points=[];" parent="5_vpQat-3BluKUmq6hPM-22" vertex="1" connectable="0">
          <mxGeometry x="0.2418" y="-2" relative="1" as="geometry">
            <mxPoint x="20" y="12" as="offset" />
          </mxGeometry>
        </mxCell>
        <mxCell id="5_vpQat-3BluKUmq6hPM-26" value="" style="endArrow=none;html=1;rounded=0;" parent="1" source="5_vpQat-3BluKUmq6hPM-8" target="5_vpQat-3BluKUmq6hPM-17" edge="1">
          <mxGeometry width="50" height="50" relative="1" as="geometry">
            <mxPoint x="660" y="270" as="sourcePoint" />
            <mxPoint x="630" y="270" as="targetPoint" />
          </mxGeometry>
        </mxCell>
        <mxCell id="5_vpQat-3BluKUmq6hPM-27" value="" style="endArrow=none;html=1;rounded=0;" parent="1" source="5_vpQat-3BluKUmq6hPM-8" target="5_vpQat-3BluKUmq6hPM-18" edge="1">
          <mxGeometry width="50" height="50" relative="1" as="geometry">
            <mxPoint x="1010" y="290" as="sourcePoint" />
            <mxPoint x="993" y="216" as="targetPoint" />
          </mxGeometry>
        </mxCell>
        <mxCell id="5_vpQat-3BluKUmq6hPM-28" value="" style="endArrow=none;html=1;rounded=0;entryX=0.5;entryY=0;entryDx=0;entryDy=0;exitX=1;exitY=0;exitDx=0;exitDy=0;" parent="1" source="5_vpQat-3BluKUmq6hPM-8" target="5_vpQat-3BluKUmq6hPM-19" edge="1">
          <mxGeometry width="50" height="50" relative="1" as="geometry">
            <mxPoint x="780" y="300" as="sourcePoint" />
            <mxPoint x="837" y="270" as="targetPoint" />
          </mxGeometry>
        </mxCell>
        <mxCell id="5_vpQat-3BluKUmq6hPM-29" value="N" style="edgeLabel;html=1;align=center;verticalAlign=middle;resizable=0;points=[];" parent="5_vpQat-3BluKUmq6hPM-28" vertex="1" connectable="0">
          <mxGeometry x="0.2418" y="-2" relative="1" as="geometry">
            <mxPoint x="19" y="-12" as="offset" />
          </mxGeometry>
        </mxCell>
        <mxCell id="5_vpQat-3BluKUmq6hPM-30" value="Token" style="swimlane;fontStyle=0;childLayout=stackLayout;horizontal=1;startSize=30;horizontalStack=0;resizeParent=1;resizeParentMax=0;resizeLast=0;collapsible=1;marginBottom=0;whiteSpace=wrap;html=1;" parent="1" vertex="1">
          <mxGeometry x="1670" y="683.37" width="140" height="120" as="geometry" />
        </mxCell>
        <mxCell id="5_vpQat-3BluKUmq6hPM-31" value="&lt;u&gt;Access Token&lt;/u&gt;" style="text;strokeColor=none;fillColor=none;align=left;verticalAlign=middle;spacingLeft=4;spacingRight=4;overflow=hidden;points=[[0,0.5],[1,0.5]];portConstraint=eastwest;rotatable=0;whiteSpace=wrap;html=1;" parent="5_vpQat-3BluKUmq6hPM-30" vertex="1">
          <mxGeometry y="30" width="140" height="30" as="geometry" />
        </mxCell>
        <mxCell id="5_vpQat-3BluKUmq6hPM-32" value="Expires at" style="text;strokeColor=none;fillColor=none;align=left;verticalAlign=middle;spacingLeft=4;spacingRight=4;overflow=hidden;points=[[0,0.5],[1,0.5]];portConstraint=eastwest;rotatable=0;whiteSpace=wrap;html=1;" parent="5_vpQat-3BluKUmq6hPM-30" vertex="1">
          <mxGeometry y="60" width="140" height="30" as="geometry" />
        </mxCell>
        <mxCell id="5_vpQat-3BluKUmq6hPM-53" value="userId" style="text;strokeColor=none;fillColor=none;align=left;verticalAlign=middle;spacingLeft=4;spacingRight=4;overflow=hidden;points=[[0,0.5],[1,0.5]];portConstraint=eastwest;rotatable=0;whiteSpace=wrap;html=1;" parent="5_vpQat-3BluKUmq6hPM-30" vertex="1">
          <mxGeometry y="90" width="140" height="30" as="geometry" />
        </mxCell>
        <mxCell id="5_vpQat-3BluKUmq6hPM-34" value="Client" style="swimlane;fontStyle=0;childLayout=stackLayout;horizontal=1;startSize=30;horizontalStack=0;resizeParent=1;resizeParentMax=0;resizeLast=0;collapsible=1;marginBottom=0;whiteSpace=wrap;html=1;" parent="1" vertex="1">
          <mxGeometry x="1956" y="593.37" width="140" height="240" as="geometry" />
        </mxCell>
        <mxCell id="5_vpQat-3BluKUmq6hPM-35" value="&lt;u&gt;id&lt;/u&gt;" style="text;strokeColor=none;fillColor=none;align=left;verticalAlign=middle;spacingLeft=4;spacingRight=4;overflow=hidden;points=[[0,0.5],[1,0.5]];portConstraint=eastwest;rotatable=0;whiteSpace=wrap;html=1;" parent="5_vpQat-3BluKUmq6hPM-34" vertex="1">
          <mxGeometry y="30" width="140" height="30" as="geometry" />
        </mxCell>
        <mxCell id="5_vpQat-3BluKUmq6hPM-36" value="username" style="text;strokeColor=none;fillColor=none;align=left;verticalAlign=middle;spacingLeft=4;spacingRight=4;overflow=hidden;points=[[0,0.5],[1,0.5]];portConstraint=eastwest;rotatable=0;whiteSpace=wrap;html=1;" parent="5_vpQat-3BluKUmq6hPM-34" vertex="1">
          <mxGeometry y="60" width="140" height="30" as="geometry" />
        </mxCell>
        <mxCell id="5_vpQat-3BluKUmq6hPM-41" value="name" style="text;strokeColor=none;fillColor=none;align=left;verticalAlign=middle;spacingLeft=4;spacingRight=4;overflow=hidden;points=[[0,0.5],[1,0.5]];portConstraint=eastwest;rotatable=0;whiteSpace=wrap;html=1;" parent="5_vpQat-3BluKUmq6hPM-34" vertex="1">
          <mxGeometry y="90" width="140" height="30" as="geometry" />
        </mxCell>
        <mxCell id="5_vpQat-3BluKUmq6hPM-42" value="email" style="text;strokeColor=none;fillColor=none;align=left;verticalAlign=middle;spacingLeft=4;spacingRight=4;overflow=hidden;points=[[0,0.5],[1,0.5]];portConstraint=eastwest;rotatable=0;whiteSpace=wrap;html=1;" parent="5_vpQat-3BluKUmq6hPM-34" vertex="1">
          <mxGeometry y="120" width="140" height="30" as="geometry" />
        </mxCell>
        <mxCell id="5_vpQat-3BluKUmq6hPM-43" value="password" style="text;strokeColor=none;fillColor=none;align=left;verticalAlign=middle;spacingLeft=4;spacingRight=4;overflow=hidden;points=[[0,0.5],[1,0.5]];portConstraint=eastwest;rotatable=0;whiteSpace=wrap;html=1;" parent="5_vpQat-3BluKUmq6hPM-34" vertex="1">
          <mxGeometry y="150" width="140" height="30" as="geometry" />
        </mxCell>
        <mxCell id="5_vpQat-3BluKUmq6hPM-44" value="avatar url" style="text;strokeColor=none;fillColor=none;align=left;verticalAlign=middle;spacingLeft=4;spacingRight=4;overflow=hidden;points=[[0,0.5],[1,0.5]];portConstraint=eastwest;rotatable=0;whiteSpace=wrap;html=1;" parent="5_vpQat-3BluKUmq6hPM-34" vertex="1">
          <mxGeometry y="180" width="140" height="30" as="geometry" />
        </mxCell>
        <mxCell id="5_vpQat-3BluKUmq6hPM-45" value="created at" style="text;strokeColor=none;fillColor=none;align=left;verticalAlign=middle;spacingLeft=4;spacingRight=4;overflow=hidden;points=[[0,0.5],[1,0.5]];portConstraint=eastwest;rotatable=0;whiteSpace=wrap;html=1;" parent="5_vpQat-3BluKUmq6hPM-34" vertex="1">
          <mxGeometry y="210" width="140" height="30" as="geometry" />
        </mxCell>
        <mxCell id="5_vpQat-3BluKUmq6hPM-54" value="" style="endArrow=none;html=1;rounded=0;exitX=1;exitY=0.5;exitDx=0;exitDy=0;entryX=0;entryY=0.5;entryDx=0;entryDy=0;" parent="1" source="5_vpQat-3BluKUmq6hPM-53" target="5_vpQat-3BluKUmq6hPM-35" edge="1">
          <mxGeometry width="50" height="50" relative="1" as="geometry">
            <mxPoint x="1846" y="793.37" as="sourcePoint" />
            <mxPoint x="1896" y="743.37" as="targetPoint" />
          </mxGeometry>
        </mxCell>
        <mxCell id="5_vpQat-3BluKUmq6hPM-55" value="Product" style="swimlane;fontStyle=0;childLayout=stackLayout;horizontal=1;startSize=30;horizontalStack=0;resizeParent=1;resizeParentMax=0;resizeLast=0;collapsible=1;marginBottom=0;whiteSpace=wrap;html=1;" parent="1" vertex="1">
          <mxGeometry x="1920" y="1100" width="140" height="240" as="geometry" />
        </mxCell>
        <mxCell id="5_vpQat-3BluKUmq6hPM-56" value="&lt;u&gt;id&lt;/u&gt;" style="text;strokeColor=none;fillColor=none;align=left;verticalAlign=middle;spacingLeft=4;spacingRight=4;overflow=hidden;points=[[0,0.5],[1,0.5]];portConstraint=eastwest;rotatable=0;whiteSpace=wrap;html=1;" parent="5_vpQat-3BluKUmq6hPM-55" vertex="1">
          <mxGeometry y="30" width="140" height="30" as="geometry" />
        </mxCell>
        <mxCell id="5_vpQat-3BluKUmq6hPM-57" value="brand" style="text;strokeColor=none;fillColor=none;align=left;verticalAlign=middle;spacingLeft=4;spacingRight=4;overflow=hidden;points=[[0,0.5],[1,0.5]];portConstraint=eastwest;rotatable=0;whiteSpace=wrap;html=1;" parent="5_vpQat-3BluKUmq6hPM-55" vertex="1">
          <mxGeometry y="60" width="140" height="30" as="geometry" />
        </mxCell>
        <mxCell id="5_vpQat-3BluKUmq6hPM-58" value="unit" style="text;strokeColor=none;fillColor=none;align=left;verticalAlign=middle;spacingLeft=4;spacingRight=4;overflow=hidden;points=[[0,0.5],[1,0.5]];portConstraint=eastwest;rotatable=0;whiteSpace=wrap;html=1;" parent="5_vpQat-3BluKUmq6hPM-55" vertex="1">
          <mxGeometry y="90" width="140" height="30" as="geometry" />
        </mxCell>
        <mxCell id="5_vpQat-3BluKUmq6hPM-59" value="description" style="text;strokeColor=none;fillColor=none;align=left;verticalAlign=middle;spacingLeft=4;spacingRight=4;overflow=hidden;points=[[0,0.5],[1,0.5]];portConstraint=eastwest;rotatable=0;whiteSpace=wrap;html=1;" parent="5_vpQat-3BluKUmq6hPM-55" vertex="1">
          <mxGeometry y="120" width="140" height="30" as="geometry" />
        </mxCell>
        <mxCell id="5_vpQat-3BluKUmq6hPM-60" value="image url" style="text;strokeColor=none;fillColor=none;align=left;verticalAlign=middle;spacingLeft=4;spacingRight=4;overflow=hidden;points=[[0,0.5],[1,0.5]];portConstraint=eastwest;rotatable=0;whiteSpace=wrap;html=1;" parent="5_vpQat-3BluKUmq6hPM-55" vertex="1">
          <mxGeometry y="150" width="140" height="30" as="geometry" />
        </mxCell>
        <mxCell id="NrwTzavVwLPOsUKDv9gL-1" value="quantity" style="text;strokeColor=none;fillColor=none;align=left;verticalAlign=middle;spacingLeft=4;spacingRight=4;overflow=hidden;points=[[0,0.5],[1,0.5]];portConstraint=eastwest;rotatable=0;whiteSpace=wrap;html=1;" parent="5_vpQat-3BluKUmq6hPM-55" vertex="1">
          <mxGeometry y="180" width="140" height="30" as="geometry" />
        </mxCell>
        <mxCell id="NrwTzavVwLPOsUKDv9gL-5" value="brandId" style="text;strokeColor=none;fillColor=none;align=left;verticalAlign=middle;spacingLeft=4;spacingRight=4;overflow=hidden;points=[[0,0.5],[1,0.5]];portConstraint=eastwest;rotatable=0;whiteSpace=wrap;html=1;" parent="5_vpQat-3BluKUmq6hPM-55" vertex="1">
          <mxGeometry y="210" width="140" height="30" as="geometry" />
        </mxCell>
        <mxCell id="5_vpQat-3BluKUmq6hPM-62" value="History" style="swimlane;fontStyle=0;childLayout=stackLayout;horizontal=1;startSize=30;horizontalStack=0;resizeParent=1;resizeParentMax=0;resizeLast=0;collapsible=1;marginBottom=0;whiteSpace=wrap;html=1;" parent="1" vertex="1">
          <mxGeometry x="1700" y="1070" width="140" height="150" as="geometry" />
        </mxCell>
        <mxCell id="5_vpQat-3BluKUmq6hPM-63" value="storeId" style="text;strokeColor=none;fillColor=none;align=left;verticalAlign=middle;spacingLeft=4;spacingRight=4;overflow=hidden;points=[[0,0.5],[1,0.5]];portConstraint=eastwest;rotatable=0;whiteSpace=wrap;html=1;fontStyle=4" parent="5_vpQat-3BluKUmq6hPM-62" vertex="1">
          <mxGeometry y="30" width="140" height="30" as="geometry" />
        </mxCell>
        <mxCell id="5_vpQat-3BluKUmq6hPM-64" value="productId" style="text;strokeColor=none;fillColor=none;align=left;verticalAlign=middle;spacingLeft=4;spacingRight=4;overflow=hidden;points=[[0,0.5],[1,0.5]];portConstraint=eastwest;rotatable=0;whiteSpace=wrap;html=1;fontStyle=4" parent="5_vpQat-3BluKUmq6hPM-62" vertex="1">
          <mxGeometry y="60" width="140" height="30" as="geometry" />
        </mxCell>
        <mxCell id="5_vpQat-3BluKUmq6hPM-73" value="date" style="text;strokeColor=none;fillColor=none;align=left;verticalAlign=middle;spacingLeft=4;spacingRight=4;overflow=hidden;points=[[0,0.5],[1,0.5]];portConstraint=eastwest;rotatable=0;whiteSpace=wrap;html=1;fontStyle=4" parent="5_vpQat-3BluKUmq6hPM-62" vertex="1">
          <mxGeometry y="90" width="140" height="30" as="geometry" />
        </mxCell>
        <mxCell id="5_vpQat-3BluKUmq6hPM-65" value="price" style="text;strokeColor=none;fillColor=none;align=left;verticalAlign=middle;spacingLeft=4;spacingRight=4;overflow=hidden;points=[[0,0.5],[1,0.5]];portConstraint=eastwest;rotatable=0;whiteSpace=wrap;html=1;" parent="5_vpQat-3BluKUmq6hPM-62" vertex="1">
          <mxGeometry y="120" width="140" height="30" as="geometry" />
        </mxCell>
        <mxCell id="5_vpQat-3BluKUmq6hPM-66" value="" style="endArrow=none;html=1;rounded=0;exitX=1;exitY=0.5;exitDx=0;exitDy=0;entryX=0;entryY=0.5;entryDx=0;entryDy=0;" parent="1" source="5_vpQat-3BluKUmq6hPM-64" target="5_vpQat-3BluKUmq6hPM-56" edge="1">
          <mxGeometry width="50" height="50" relative="1" as="geometry">
            <mxPoint x="1730" y="1000" as="sourcePoint" />
            <mxPoint x="1780" y="950" as="targetPoint" />
          </mxGeometry>
        </mxCell>
        <mxCell id="5_vpQat-3BluKUmq6hPM-67" value="Store" style="swimlane;fontStyle=0;childLayout=stackLayout;horizontal=1;startSize=30;horizontalStack=0;resizeParent=1;resizeParentMax=0;resizeLast=0;collapsible=1;marginBottom=0;whiteSpace=wrap;html=1;" parent="1" vertex="1">
          <mxGeometry x="1480" y="1070" width="140" height="150" as="geometry" />
        </mxCell>
        <mxCell id="5_vpQat-3BluKUmq6hPM-68" value="&lt;u&gt;id&lt;/u&gt;" style="text;strokeColor=none;fillColor=none;align=left;verticalAlign=middle;spacingLeft=4;spacingRight=4;overflow=hidden;points=[[0,0.5],[1,0.5]];portConstraint=eastwest;rotatable=0;whiteSpace=wrap;html=1;" parent="5_vpQat-3BluKUmq6hPM-67" vertex="1">
          <mxGeometry y="30" width="140" height="30" as="geometry" />
        </mxCell>
        <mxCell id="5_vpQat-3BluKUmq6hPM-69" value="address" style="text;strokeColor=none;fillColor=none;align=left;verticalAlign=middle;spacingLeft=4;spacingRight=4;overflow=hidden;points=[[0,0.5],[1,0.5]];portConstraint=eastwest;rotatable=0;whiteSpace=wrap;html=1;" parent="5_vpQat-3BluKUmq6hPM-67" vertex="1">
          <mxGeometry y="60" width="140" height="30" as="geometry" />
        </mxCell>
        <mxCell id="5_vpQat-3BluKUmq6hPM-70" value="close time" style="text;strokeColor=none;fillColor=none;align=left;verticalAlign=middle;spacingLeft=4;spacingRight=4;overflow=hidden;points=[[0,0.5],[1,0.5]];portConstraint=eastwest;rotatable=0;whiteSpace=wrap;html=1;" parent="5_vpQat-3BluKUmq6hPM-67" vertex="1">
          <mxGeometry y="90" width="140" height="30" as="geometry" />
        </mxCell>
        <mxCell id="5_vpQat-3BluKUmq6hPM-71" value="open time" style="text;strokeColor=none;fillColor=none;align=left;verticalAlign=middle;spacingLeft=4;spacingRight=4;overflow=hidden;points=[[0,0.5],[1,0.5]];portConstraint=eastwest;rotatable=0;whiteSpace=wrap;html=1;" parent="5_vpQat-3BluKUmq6hPM-67" vertex="1">
          <mxGeometry y="120" width="140" height="30" as="geometry" />
        </mxCell>
        <mxCell id="5_vpQat-3BluKUmq6hPM-72" value="" style="endArrow=none;html=1;rounded=0;exitX=1;exitY=0.5;exitDx=0;exitDy=0;entryX=0;entryY=0.5;entryDx=0;entryDy=0;" parent="1" source="5_vpQat-3BluKUmq6hPM-68" target="5_vpQat-3BluKUmq6hPM-63" edge="1">
          <mxGeometry width="50" height="50" relative="1" as="geometry">
            <mxPoint x="1400" y="1060" as="sourcePoint" />
            <mxPoint x="1450" y="1010" as="targetPoint" />
          </mxGeometry>
        </mxCell>
        <mxCell id="5_vpQat-3BluKUmq6hPM-74" value="Promotion" style="swimlane;fontStyle=0;childLayout=stackLayout;horizontal=1;startSize=30;horizontalStack=0;resizeParent=1;resizeParentMax=0;resizeLast=0;collapsible=1;marginBottom=0;whiteSpace=wrap;html=1;" parent="1" vertex="1">
          <mxGeometry x="1670" y="850" width="140" height="150" as="geometry" />
        </mxCell>
        <mxCell id="NrwTzavVwLPOsUKDv9gL-19" value="storeId" style="text;strokeColor=none;fillColor=none;align=left;verticalAlign=middle;spacingLeft=4;spacingRight=4;overflow=hidden;points=[[0,0.5],[1,0.5]];portConstraint=eastwest;rotatable=0;whiteSpace=wrap;html=1;fontStyle=4" parent="5_vpQat-3BluKUmq6hPM-74" vertex="1">
          <mxGeometry y="30" width="140" height="30" as="geometry" />
        </mxCell>
        <mxCell id="NrwTzavVwLPOsUKDv9gL-18" value="productId" style="text;strokeColor=none;fillColor=none;align=left;verticalAlign=middle;spacingLeft=4;spacingRight=4;overflow=hidden;points=[[0,0.5],[1,0.5]];portConstraint=eastwest;rotatable=0;whiteSpace=wrap;html=1;" parent="5_vpQat-3BluKUmq6hPM-74" vertex="1">
          <mxGeometry y="60" width="140" height="30" as="geometry" />
        </mxCell>
        <mxCell id="5_vpQat-3BluKUmq6hPM-76" value="Percentage" style="text;strokeColor=none;fillColor=none;align=left;verticalAlign=middle;spacingLeft=4;spacingRight=4;overflow=hidden;points=[[0,0.5],[1,0.5]];portConstraint=eastwest;rotatable=0;whiteSpace=wrap;html=1;" parent="5_vpQat-3BluKUmq6hPM-74" vertex="1">
          <mxGeometry y="90" width="140" height="30" as="geometry" />
        </mxCell>
        <mxCell id="5_vpQat-3BluKUmq6hPM-78" value="discount" style="text;strokeColor=none;fillColor=none;align=left;verticalAlign=middle;spacingLeft=4;spacingRight=4;overflow=hidden;points=[[0,0.5],[1,0.5]];portConstraint=eastwest;rotatable=0;whiteSpace=wrap;html=1;" parent="5_vpQat-3BluKUmq6hPM-74" vertex="1">
          <mxGeometry y="120" width="140" height="30" as="geometry" />
        </mxCell>
        <mxCell id="5_vpQat-3BluKUmq6hPM-82" value="&lt;span style=&quot;font-size: 20px;&quot;&gt;Brand&lt;/span&gt;" style="rounded=0;whiteSpace=wrap;html=1;" parent="1" vertex="1">
          <mxGeometry x="960" y="440" width="120" height="60" as="geometry" />
        </mxCell>
        <mxCell id="5_vpQat-3BluKUmq6hPM-83" value="&lt;u&gt;id&lt;/u&gt;" style="ellipse;whiteSpace=wrap;html=1;" parent="1" vertex="1">
          <mxGeometry x="980" y="380" width="80" height="40" as="geometry" />
        </mxCell>
        <mxCell id="5_vpQat-3BluKUmq6hPM-84" value="" style="endArrow=none;html=1;rounded=0;" parent="1" source="5_vpQat-3BluKUmq6hPM-82" target="5_vpQat-3BluKUmq6hPM-83" edge="1">
          <mxGeometry width="50" height="50" relative="1" as="geometry">
            <mxPoint x="720" y="240" as="sourcePoint" />
            <mxPoint x="720" y="210" as="targetPoint" />
          </mxGeometry>
        </mxCell>
        <mxCell id="5_vpQat-3BluKUmq6hPM-85" value="&lt;span&gt;name&lt;/span&gt;" style="ellipse;whiteSpace=wrap;html=1;fontStyle=0" parent="1" vertex="1">
          <mxGeometry x="1110" y="450" width="80" height="40" as="geometry" />
        </mxCell>
        <mxCell id="5_vpQat-3BluKUmq6hPM-86" value="" style="endArrow=none;html=1;rounded=0;" parent="1" source="5_vpQat-3BluKUmq6hPM-85" target="5_vpQat-3BluKUmq6hPM-82" edge="1">
          <mxGeometry width="50" height="50" relative="1" as="geometry">
            <mxPoint x="660" y="270" as="sourcePoint" />
            <mxPoint x="630" y="270" as="targetPoint" />
          </mxGeometry>
        </mxCell>
        <mxCell id="5_vpQat-3BluKUmq6hPM-87" value="Has" style="rhombus;whiteSpace=wrap;html=1;" parent="1" vertex="1">
          <mxGeometry x="827" y="430" width="80" height="80" as="geometry" />
        </mxCell>
        <mxCell id="5_vpQat-3BluKUmq6hPM-88" value="1" style="endArrow=none;html=1;rounded=0;entryX=1;entryY=0.5;entryDx=0;entryDy=0;" parent="1" source="5_vpQat-3BluKUmq6hPM-82" target="5_vpQat-3BluKUmq6hPM-87" edge="1">
          <mxGeometry x="0.8868" y="10" width="50" height="50" relative="1" as="geometry">
            <mxPoint x="570" y="410" as="sourcePoint" />
            <mxPoint x="620" y="360" as="targetPoint" />
            <mxPoint as="offset" />
          </mxGeometry>
        </mxCell>
        <mxCell id="5_vpQat-3BluKUmq6hPM-89" value="N" style="endArrow=none;html=1;rounded=0;entryX=0;entryY=0.5;entryDx=0;entryDy=0;" parent="1" source="-fhKCmuMDrOjXcrdq4xB-1" target="5_vpQat-3BluKUmq6hPM-87" edge="1">
          <mxGeometry x="0.7544" y="-10" width="50" height="50" relative="1" as="geometry">
            <mxPoint x="453" y="300" as="sourcePoint" />
            <mxPoint x="530" y="380" as="targetPoint" />
            <mxPoint as="offset" />
          </mxGeometry>
        </mxCell>
        <mxCell id="5_vpQat-3BluKUmq6hPM-91" value="quantity" style="ellipse;whiteSpace=wrap;html=1;" parent="1" vertex="1">
          <mxGeometry x="570" y="347.5" width="80" height="40" as="geometry" />
        </mxCell>
        <mxCell id="5_vpQat-3BluKUmq6hPM-92" value="" style="endArrow=none;html=1;rounded=0;" parent="1" source="-fhKCmuMDrOjXcrdq4xB-1" target="5_vpQat-3BluKUmq6hPM-91" edge="1">
          <mxGeometry width="50" height="50" relative="1" as="geometry">
            <mxPoint x="780" y="457" as="sourcePoint" />
            <mxPoint x="798" y="450" as="targetPoint" />
          </mxGeometry>
        </mxCell>
        <mxCell id="NrwTzavVwLPOsUKDv9gL-2" value="Brand" style="swimlane;fontStyle=0;childLayout=stackLayout;horizontal=1;startSize=30;horizontalStack=0;resizeParent=1;resizeParentMax=0;resizeLast=0;collapsible=1;marginBottom=0;whiteSpace=wrap;html=1;" parent="1" vertex="1">
          <mxGeometry x="2140" y="1280" width="140" height="90" as="geometry" />
        </mxCell>
        <mxCell id="NrwTzavVwLPOsUKDv9gL-3" value="&lt;u&gt;id&lt;/u&gt;" style="text;strokeColor=none;fillColor=none;align=left;verticalAlign=middle;spacingLeft=4;spacingRight=4;overflow=hidden;points=[[0,0.5],[1,0.5]];portConstraint=eastwest;rotatable=0;whiteSpace=wrap;html=1;" parent="NrwTzavVwLPOsUKDv9gL-2" vertex="1">
          <mxGeometry y="30" width="140" height="30" as="geometry" />
        </mxCell>
        <mxCell id="NrwTzavVwLPOsUKDv9gL-4" value="name" style="text;strokeColor=none;fillColor=none;align=left;verticalAlign=middle;spacingLeft=4;spacingRight=4;overflow=hidden;points=[[0,0.5],[1,0.5]];portConstraint=eastwest;rotatable=0;whiteSpace=wrap;html=1;" parent="NrwTzavVwLPOsUKDv9gL-2" vertex="1">
          <mxGeometry y="60" width="140" height="30" as="geometry" />
        </mxCell>
        <mxCell id="NrwTzavVwLPOsUKDv9gL-6" value="" style="endArrow=none;html=1;rounded=0;exitX=1;exitY=0.5;exitDx=0;exitDy=0;entryX=0;entryY=0.5;entryDx=0;entryDy=0;" parent="1" source="NrwTzavVwLPOsUKDv9gL-5" target="NrwTzavVwLPOsUKDv9gL-3" edge="1">
          <mxGeometry width="50" height="50" relative="1" as="geometry">
            <mxPoint x="1860" y="1220" as="sourcePoint" />
            <mxPoint x="1910" y="1170" as="targetPoint" />
          </mxGeometry>
        </mxCell>
        <mxCell id="NrwTzavVwLPOsUKDv9gL-7" value="Category" style="swimlane;fontStyle=0;childLayout=stackLayout;horizontal=1;startSize=30;horizontalStack=0;resizeParent=1;resizeParentMax=0;resizeLast=0;collapsible=1;marginBottom=0;whiteSpace=wrap;html=1;" parent="1" vertex="1">
          <mxGeometry x="2360" y="1130" width="140" height="120" as="geometry" />
        </mxCell>
        <mxCell id="NrwTzavVwLPOsUKDv9gL-8" value="id" style="text;strokeColor=none;fillColor=none;align=left;verticalAlign=middle;spacingLeft=4;spacingRight=4;overflow=hidden;points=[[0,0.5],[1,0.5]];portConstraint=eastwest;rotatable=0;whiteSpace=wrap;html=1;fontStyle=4" parent="NrwTzavVwLPOsUKDv9gL-7" vertex="1">
          <mxGeometry y="30" width="140" height="30" as="geometry" />
        </mxCell>
        <mxCell id="NrwTzavVwLPOsUKDv9gL-9" value="name" style="text;strokeColor=none;fillColor=none;align=left;verticalAlign=middle;spacingLeft=4;spacingRight=4;overflow=hidden;points=[[0,0.5],[1,0.5]];portConstraint=eastwest;rotatable=0;whiteSpace=wrap;html=1;" parent="NrwTzavVwLPOsUKDv9gL-7" vertex="1">
          <mxGeometry y="60" width="140" height="30" as="geometry" />
        </mxCell>
        <mxCell id="NrwTzavVwLPOsUKDv9gL-10" value="order" style="text;strokeColor=none;fillColor=none;align=left;verticalAlign=middle;spacingLeft=4;spacingRight=4;overflow=hidden;points=[[0,0.5],[1,0.5]];portConstraint=eastwest;rotatable=0;whiteSpace=wrap;html=1;" parent="NrwTzavVwLPOsUKDv9gL-7" vertex="1">
          <mxGeometry y="90" width="140" height="30" as="geometry" />
        </mxCell>
        <mxCell id="NrwTzavVwLPOsUKDv9gL-11" value="Product Category" style="swimlane;fontStyle=0;childLayout=stackLayout;horizontal=1;startSize=30;horizontalStack=0;resizeParent=1;resizeParentMax=0;resizeLast=0;collapsible=1;marginBottom=0;whiteSpace=wrap;html=1;" parent="1" vertex="1">
          <mxGeometry x="2140" y="1100" width="140" height="90" as="geometry" />
        </mxCell>
        <mxCell id="NrwTzavVwLPOsUKDv9gL-12" value="productId" style="text;strokeColor=none;fillColor=none;align=left;verticalAlign=middle;spacingLeft=4;spacingRight=4;overflow=hidden;points=[[0,0.5],[1,0.5]];portConstraint=eastwest;rotatable=0;whiteSpace=wrap;html=1;fontStyle=4" parent="NrwTzavVwLPOsUKDv9gL-11" vertex="1">
          <mxGeometry y="30" width="140" height="30" as="geometry" />
        </mxCell>
        <mxCell id="NrwTzavVwLPOsUKDv9gL-13" value="categoryId" style="text;strokeColor=none;fillColor=none;align=left;verticalAlign=middle;spacingLeft=4;spacingRight=4;overflow=hidden;points=[[0,0.5],[1,0.5]];portConstraint=eastwest;rotatable=0;whiteSpace=wrap;html=1;fontStyle=4" parent="NrwTzavVwLPOsUKDv9gL-11" vertex="1">
          <mxGeometry y="60" width="140" height="30" as="geometry" />
        </mxCell>
        <mxCell id="NrwTzavVwLPOsUKDv9gL-15" value="" style="endArrow=none;html=1;rounded=0;exitX=1;exitY=0.5;exitDx=0;exitDy=0;entryX=0;entryY=0.5;entryDx=0;entryDy=0;" parent="1" source="5_vpQat-3BluKUmq6hPM-56" target="NrwTzavVwLPOsUKDv9gL-12" edge="1">
          <mxGeometry width="50" height="50" relative="1" as="geometry">
            <mxPoint x="2070" y="1335" as="sourcePoint" />
            <mxPoint x="2150" y="1335" as="targetPoint" />
          </mxGeometry>
        </mxCell>
        <mxCell id="NrwTzavVwLPOsUKDv9gL-16" value="" style="endArrow=none;html=1;rounded=0;exitX=1;exitY=0.5;exitDx=0;exitDy=0;entryX=0;entryY=0.5;entryDx=0;entryDy=0;" parent="1" source="NrwTzavVwLPOsUKDv9gL-13" target="NrwTzavVwLPOsUKDv9gL-8" edge="1">
          <mxGeometry width="50" height="50" relative="1" as="geometry">
            <mxPoint x="2070" y="1155" as="sourcePoint" />
            <mxPoint x="2150" y="1155" as="targetPoint" />
          </mxGeometry>
        </mxCell>
        <mxCell id="RC9hor7PcypzpRkeTnEh-1" value="&lt;span style=&quot;font-size: 20px;&quot;&gt;Company&lt;/span&gt;" style="rounded=0;whiteSpace=wrap;html=1;" parent="1" vertex="1">
          <mxGeometry x="960" y="650" width="120" height="60" as="geometry" />
        </mxCell>
        <mxCell id="RC9hor7PcypzpRkeTnEh-2" value="city" style="ellipse;whiteSpace=wrap;html=1;" parent="1" vertex="1">
          <mxGeometry x="620" y="733.37" width="80" height="40" as="geometry" />
        </mxCell>
        <mxCell id="RC9hor7PcypzpRkeTnEh-3" value="Belongs" style="rhombus;whiteSpace=wrap;html=1;" parent="1" vertex="1">
          <mxGeometry x="827" y="640" width="80" height="80" as="geometry" />
        </mxCell>
        <mxCell id="RC9hor7PcypzpRkeTnEh-4" value="" style="endArrow=none;html=1;rounded=0;entryX=0;entryY=0.5;entryDx=0;entryDy=0;exitX=1;exitY=0.5;exitDx=0;exitDy=0;" parent="1" source="-fhKCmuMDrOjXcrdq4xB-47" target="RC9hor7PcypzpRkeTnEh-3" edge="1">
          <mxGeometry width="50" height="50" relative="1" as="geometry">
            <mxPoint x="750" y="660" as="sourcePoint" />
            <mxPoint x="800" y="610" as="targetPoint" />
          </mxGeometry>
        </mxCell>
        <mxCell id="RC9hor7PcypzpRkeTnEh-7" value="N" style="edgeLabel;html=1;align=center;verticalAlign=middle;resizable=0;points=[];" parent="RC9hor7PcypzpRkeTnEh-4" vertex="1" connectable="0">
          <mxGeometry x="0.5459" relative="1" as="geometry">
            <mxPoint x="6" y="-12" as="offset" />
          </mxGeometry>
        </mxCell>
        <mxCell id="RC9hor7PcypzpRkeTnEh-5" value="" style="endArrow=none;html=1;rounded=0;entryX=0;entryY=0.5;entryDx=0;entryDy=0;exitX=1;exitY=0.5;exitDx=0;exitDy=0;" parent="1" source="RC9hor7PcypzpRkeTnEh-3" target="RC9hor7PcypzpRkeTnEh-1" edge="1">
          <mxGeometry width="50" height="50" relative="1" as="geometry">
            <mxPoint x="780" y="690" as="sourcePoint" />
            <mxPoint x="837" y="690" as="targetPoint" />
          </mxGeometry>
        </mxCell>
        <mxCell id="RC9hor7PcypzpRkeTnEh-6" value="1" style="edgeLabel;html=1;align=center;verticalAlign=middle;resizable=0;points=[];" parent="RC9hor7PcypzpRkeTnEh-5" vertex="1" connectable="0">
          <mxGeometry x="-0.2743" y="1" relative="1" as="geometry">
            <mxPoint x="-19" y="-11" as="offset" />
          </mxGeometry>
        </mxCell>
        <mxCell id="RC9hor7PcypzpRkeTnEh-8" value="" style="endArrow=none;html=1;rounded=0;" parent="1" source="RC9hor7PcypzpRkeTnEh-9" target="RC9hor7PcypzpRkeTnEh-1" edge="1">
          <mxGeometry width="50" height="50" relative="1" as="geometry">
            <mxPoint x="662" y="733" as="sourcePoint" />
            <mxPoint x="810" y="700" as="targetPoint" />
          </mxGeometry>
        </mxCell>
        <mxCell id="RC9hor7PcypzpRkeTnEh-9" value="&lt;span&gt;name&lt;/span&gt;" style="ellipse;whiteSpace=wrap;html=1;fontStyle=0" parent="1" vertex="1">
          <mxGeometry x="1072.5" y="718.02" width="80" height="40" as="geometry" />
        </mxCell>
        <mxCell id="RC9hor7PcypzpRkeTnEh-10" value="" style="endArrow=none;html=1;rounded=0;" parent="1" source="RC9hor7PcypzpRkeTnEh-2" target="-fhKCmuMDrOjXcrdq4xB-47" edge="1">
          <mxGeometry width="50" height="50" relative="1" as="geometry">
            <mxPoint x="584" y="648" as="sourcePoint" />
            <mxPoint x="660" y="672" as="targetPoint" />
          </mxGeometry>
        </mxCell>
        <mxCell id="RC9hor7PcypzpRkeTnEh-17" value="" style="endArrow=none;html=1;rounded=0;exitX=0.5;exitY=1;exitDx=0;exitDy=0;" parent="1" source="RC9hor7PcypzpRkeTnEh-18" edge="1">
          <mxGeometry width="50" height="50" relative="1" as="geometry">
            <mxPoint x="260" y="860" as="sourcePoint" />
            <mxPoint x="350" y="860" as="targetPoint" />
            <Array as="points">
              <mxPoint x="-70" y="860" />
            </Array>
          </mxGeometry>
        </mxCell>
        <mxCell id="RC9hor7PcypzpRkeTnEh-21" value="N" style="edgeLabel;html=1;align=center;verticalAlign=middle;resizable=0;points=[];" parent="RC9hor7PcypzpRkeTnEh-17" vertex="1" connectable="0">
          <mxGeometry x="-0.8398" y="3" relative="1" as="geometry">
            <mxPoint x="7" y="-70" as="offset" />
          </mxGeometry>
        </mxCell>
        <mxCell id="RC9hor7PcypzpRkeTnEh-18" value="Reviews" style="rhombus;whiteSpace=wrap;html=1;" parent="1" vertex="1">
          <mxGeometry x="-111" y="189.99999999999997" width="80" height="80" as="geometry" />
        </mxCell>
        <mxCell id="RC9hor7PcypzpRkeTnEh-19" value="" style="endArrow=none;html=1;rounded=0;exitX=1;exitY=0.5;exitDx=0;exitDy=0;" parent="1" source="RC9hor7PcypzpRkeTnEh-18" target="-fhKCmuMDrOjXcrdq4xB-1" edge="1">
          <mxGeometry width="50" height="50" relative="1" as="geometry">
            <mxPoint x="290" y="570" as="sourcePoint" />
            <mxPoint x="350" y="260" as="targetPoint" />
            <Array as="points" />
          </mxGeometry>
        </mxCell>
        <mxCell id="RC9hor7PcypzpRkeTnEh-20" value="N" style="edgeLabel;html=1;align=center;verticalAlign=middle;resizable=0;points=[];" parent="RC9hor7PcypzpRkeTnEh-19" vertex="1" connectable="0">
          <mxGeometry x="-0.9308" y="-2" relative="1" as="geometry">
            <mxPoint x="-5" y="-18" as="offset" />
          </mxGeometry>
        </mxCell>
        <mxCell id="RC9hor7PcypzpRkeTnEh-22" value="" style="endArrow=none;html=1;rounded=0;" parent="1" source="RC9hor7PcypzpRkeTnEh-18" target="RC9hor7PcypzpRkeTnEh-24" edge="1">
          <mxGeometry width="50" height="50" relative="1" as="geometry">
            <mxPoint x="29" y="373.29" as="sourcePoint" />
            <mxPoint x="29" y="313.29" as="targetPoint" />
          </mxGeometry>
        </mxCell>
        <mxCell id="RC9hor7PcypzpRkeTnEh-24" value="created at" style="ellipse;whiteSpace=wrap;html=1;" parent="1" vertex="1">
          <mxGeometry x="-171" y="178.29" width="80" height="40" as="geometry" />
        </mxCell>
        <mxCell id="RC9hor7PcypzpRkeTnEh-28" value="rate" style="ellipse;whiteSpace=wrap;html=1;" parent="1" vertex="1">
          <mxGeometry x="-191" y="243.29" width="80" height="40" as="geometry" />
        </mxCell>
        <mxCell id="RC9hor7PcypzpRkeTnEh-29" value="" style="endArrow=none;html=1;rounded=0;" parent="1" source="RC9hor7PcypzpRkeTnEh-18" target="RC9hor7PcypzpRkeTnEh-28" edge="1">
          <mxGeometry width="50" height="50" relative="1" as="geometry">
            <mxPoint x="-28.142857142857125" y="436.66" as="sourcePoint" />
            <mxPoint x="-61" y="406.66" as="targetPoint" />
          </mxGeometry>
        </mxCell>
        <mxCell id="RC9hor7PcypzpRkeTnEh-31" value="text" style="ellipse;whiteSpace=wrap;html=1;" parent="1" vertex="1">
          <mxGeometry x="-111" y="138.29" width="80" height="40" as="geometry" />
        </mxCell>
        <mxCell id="RC9hor7PcypzpRkeTnEh-32" value="" style="endArrow=none;html=1;rounded=0;" parent="1" source="RC9hor7PcypzpRkeTnEh-18" target="RC9hor7PcypzpRkeTnEh-31" edge="1">
          <mxGeometry width="50" height="50" relative="1" as="geometry">
            <mxPoint x="183" y="256.66" as="sourcePoint" />
            <mxPoint x="210" y="212.66" as="targetPoint" />
          </mxGeometry>
        </mxCell>
        <mxCell id="RC9hor7PcypzpRkeTnEh-33" value="rate" style="ellipse;whiteSpace=wrap;html=1;dashed=1;" parent="1" vertex="1">
          <mxGeometry x="610" y="509.15" width="80" height="40" as="geometry" />
        </mxCell>
        <mxCell id="RC9hor7PcypzpRkeTnEh-35" value="" style="endArrow=none;html=1;rounded=0;" parent="1" source="-fhKCmuMDrOjXcrdq4xB-1" target="RC9hor7PcypzpRkeTnEh-33" edge="1">
          <mxGeometry width="50" height="50" relative="1" as="geometry">
            <mxPoint x="748" y="450" as="sourcePoint" />
            <mxPoint x="780" y="416" as="targetPoint" />
          </mxGeometry>
        </mxCell>
        <mxCell id="YiIuWlqVmYQCmq5VNe0C-3" value="Favorites" style="rhombus;whiteSpace=wrap;html=1;" parent="1" vertex="1">
          <mxGeometry x="1190" y="260" width="80" height="80" as="geometry" />
        </mxCell>
        <mxCell id="YiIuWlqVmYQCmq5VNe0C-6" value="" style="endArrow=none;html=1;rounded=0;exitX=0;exitY=0.5;exitDx=0;exitDy=0;" parent="1" source="YiIuWlqVmYQCmq5VNe0C-3" target="-fhKCmuMDrOjXcrdq4xB-1" edge="1">
          <mxGeometry width="50" height="50" relative="1" as="geometry">
            <mxPoint x="438" y="840" as="sourcePoint" />
            <mxPoint x="590" y="550" as="targetPoint" />
          </mxGeometry>
        </mxCell>
        <mxCell id="YiIuWlqVmYQCmq5VNe0C-7" value="N" style="edgeLabel;html=1;align=center;verticalAlign=middle;resizable=0;points=[];" parent="YiIuWlqVmYQCmq5VNe0C-6" vertex="1" connectable="0">
          <mxGeometry x="0.5133" relative="1" as="geometry">
            <mxPoint x="307" y="-122" as="offset" />
          </mxGeometry>
        </mxCell>
        <mxCell id="YiIuWlqVmYQCmq5VNe0C-8" value="adress" style="ellipse;whiteSpace=wrap;html=1;fontStyle=0" parent="1" vertex="1">
          <mxGeometry x="550" y="710" width="80" height="40" as="geometry" />
        </mxCell>
        <mxCell id="YiIuWlqVmYQCmq5VNe0C-9" value="RI1" style="text;html=1;align=center;verticalAlign=middle;whiteSpace=wrap;rounded=0;" parent="1" vertex="1">
          <mxGeometry x="550" y="743.37" width="60" height="30" as="geometry" />
        </mxCell>
        <mxCell id="YiIuWlqVmYQCmq5VNe0C-10" value="RI1 Unique" style="text;html=1;align=center;verticalAlign=middle;whiteSpace=wrap;rounded=0;" parent="1" vertex="1">
          <mxGeometry x="180" y="40" width="90" height="30" as="geometry" />
        </mxCell>
        <mxCell id="YiIuWlqVmYQCmq5VNe0C-11" value="RI1" style="text;html=1;align=center;verticalAlign=middle;whiteSpace=wrap;rounded=0;" parent="1" vertex="1">
          <mxGeometry x="780" y="160" width="60" height="30" as="geometry" />
        </mxCell>
        <mxCell id="YiIuWlqVmYQCmq5VNe0C-12" value="RI1" style="text;html=1;align=center;verticalAlign=middle;whiteSpace=wrap;rounded=0;" parent="1" vertex="1">
          <mxGeometry x="1120" y="430" width="60" height="30" as="geometry" />
        </mxCell>
        <mxCell id="oqIuJ54cnwWjOgzkzi1r-1" value="created at" style="ellipse;whiteSpace=wrap;html=1;" parent="1" vertex="1">
          <mxGeometry x="1110" y="660" width="80" height="40" as="geometry" />
        </mxCell>
        <mxCell id="oqIuJ54cnwWjOgzkzi1r-2" value="" style="endArrow=none;html=1;rounded=0;" parent="1" source="oqIuJ54cnwWjOgzkzi1r-1" target="RC9hor7PcypzpRkeTnEh-1" edge="1">
          <mxGeometry width="50" height="50" relative="1" as="geometry">
            <mxPoint x="850" y="700" as="sourcePoint" />
            <mxPoint x="900" y="650" as="targetPoint" />
          </mxGeometry>
        </mxCell>
        <mxCell id="oqIuJ54cnwWjOgzkzi1r-3" value="date" style="ellipse;whiteSpace=wrap;html=1;" parent="1" vertex="1">
          <mxGeometry x="1190" y="190" width="80" height="40" as="geometry" />
        </mxCell>
        <mxCell id="oqIuJ54cnwWjOgzkzi1r-4" value="" style="endArrow=none;html=1;rounded=0;" parent="1" source="YiIuWlqVmYQCmq5VNe0C-3" target="oqIuJ54cnwWjOgzkzi1r-3" edge="1">
          <mxGeometry width="50" height="50" relative="1" as="geometry">
            <mxPoint x="691" y="450" as="sourcePoint" />
            <mxPoint x="638" y="395" as="targetPoint" />
          </mxGeometry>
        </mxCell>
        <mxCell id="oqIuJ54cnwWjOgzkzi1r-5" value="&lt;font style=&quot;font-size: 20px;&quot;&gt;Post&lt;/font&gt;" style="rounded=0;whiteSpace=wrap;html=1;" parent="1" vertex="1">
          <mxGeometry x="35" y="440" width="120" height="60" as="geometry" />
        </mxCell>
        <mxCell id="oqIuJ54cnwWjOgzkzi1r-7" value="&lt;u&gt;id&lt;/u&gt;" style="ellipse;whiteSpace=wrap;html=1;" parent="1" vertex="1">
          <mxGeometry x="55" y="380" width="80" height="40" as="geometry" />
        </mxCell>
        <mxCell id="oqIuJ54cnwWjOgzkzi1r-8" value="" style="endArrow=none;html=1;rounded=0;" parent="1" source="oqIuJ54cnwWjOgzkzi1r-5" target="oqIuJ54cnwWjOgzkzi1r-7" edge="1">
          <mxGeometry width="50" height="50" relative="1" as="geometry">
            <mxPoint x="490" y="677.52" as="sourcePoint" />
            <mxPoint x="540" y="627.52" as="targetPoint" />
          </mxGeometry>
        </mxCell>
        <mxCell id="oqIuJ54cnwWjOgzkzi1r-11" value="" style="endArrow=none;html=1;rounded=0;" parent="1" source="oqIuJ54cnwWjOgzkzi1r-12" target="-fhKCmuMDrOjXcrdq4xB-36" edge="1">
          <mxGeometry width="50" height="50" relative="1" as="geometry">
            <mxPoint x="500" y="510" as="sourcePoint" />
            <mxPoint x="563" y="428" as="targetPoint" />
          </mxGeometry>
        </mxCell>
        <mxCell id="oqIuJ54cnwWjOgzkzi1r-12" value="quantity" style="ellipse;whiteSpace=wrap;html=1;" parent="1" vertex="1">
          <mxGeometry x="430" y="503.37" width="80" height="40" as="geometry" />
        </mxCell>
        <mxCell id="oqIuJ54cnwWjOgzkzi1r-13" value="&lt;span&gt;text&lt;/span&gt;" style="ellipse;whiteSpace=wrap;html=1;fontStyle=0" parent="1" vertex="1">
          <mxGeometry x="-45" y="380" width="80" height="40" as="geometry" />
        </mxCell>
        <mxCell id="oqIuJ54cnwWjOgzkzi1r-15" value="" style="endArrow=none;html=1;rounded=0;" parent="1" source="oqIuJ54cnwWjOgzkzi1r-13" target="oqIuJ54cnwWjOgzkzi1r-5" edge="1">
          <mxGeometry width="50" height="50" relative="1" as="geometry">
            <mxPoint x="385" y="747.52" as="sourcePoint" />
            <mxPoint x="592" y="635.52" as="targetPoint" />
          </mxGeometry>
        </mxCell>
        <mxCell id="oqIuJ54cnwWjOgzkzi1r-26" value="Writes" style="rhombus;whiteSpace=wrap;html=1;" parent="1" vertex="1">
          <mxGeometry x="55" y="640" width="80" height="80" as="geometry" />
        </mxCell>
        <mxCell id="oqIuJ54cnwWjOgzkzi1r-27" value="" style="endArrow=none;html=1;rounded=0;exitX=0.5;exitY=1;exitDx=0;exitDy=0;" parent="1" source="oqIuJ54cnwWjOgzkzi1r-26" target="-fhKCmuMDrOjXcrdq4xB-12" edge="1">
          <mxGeometry width="50" height="50" relative="1" as="geometry">
            <mxPoint x="270" y="980" as="sourcePoint" />
            <mxPoint x="350" y="860" as="targetPoint" />
            <Array as="points">
              <mxPoint x="95" y="860" />
            </Array>
          </mxGeometry>
        </mxCell>
        <mxCell id="oqIuJ54cnwWjOgzkzi1r-28" value="1" style="edgeLabel;html=1;align=center;verticalAlign=middle;resizable=0;points=[];" parent="oqIuJ54cnwWjOgzkzi1r-27" vertex="1" connectable="0">
          <mxGeometry x="-0.706" y="5" relative="1" as="geometry">
            <mxPoint x="10" y="-51" as="offset" />
          </mxGeometry>
        </mxCell>
        <mxCell id="oqIuJ54cnwWjOgzkzi1r-31" value="&lt;span&gt;title&lt;/span&gt;" style="ellipse;whiteSpace=wrap;html=1;fontStyle=0" parent="1" vertex="1">
          <mxGeometry x="-8" y="517.52" width="80" height="40" as="geometry" />
        </mxCell>
        <mxCell id="oqIuJ54cnwWjOgzkzi1r-32" value="" style="endArrow=none;html=1;rounded=0;" parent="1" source="oqIuJ54cnwWjOgzkzi1r-5" target="oqIuJ54cnwWjOgzkzi1r-31" edge="1">
          <mxGeometry width="50" height="50" relative="1" as="geometry">
            <mxPoint x="615" y="537.52" as="sourcePoint" />
            <mxPoint x="605" y="525.52" as="targetPoint" />
          </mxGeometry>
        </mxCell>
        <mxCell id="oqIuJ54cnwWjOgzkzi1r-36" value="" style="endArrow=none;html=1;rounded=0;" parent="1" source="oqIuJ54cnwWjOgzkzi1r-38" target="oqIuJ54cnwWjOgzkzi1r-5" edge="1">
          <mxGeometry width="50" height="50" relative="1" as="geometry">
            <mxPoint x="660" y="627.52" as="sourcePoint" />
            <mxPoint x="580" y="594.52" as="targetPoint" />
          </mxGeometry>
        </mxCell>
        <mxCell id="oqIuJ54cnwWjOgzkzi1r-38" value="created at" style="ellipse;whiteSpace=wrap;html=1;fontStyle=0" parent="1" vertex="1">
          <mxGeometry x="-60" y="452.52" width="80" height="40" as="geometry" />
        </mxCell>
        <mxCell id="oqIuJ54cnwWjOgzkzi1r-43" value="N" style="endArrow=none;html=1;rounded=0;exitX=0.5;exitY=0;exitDx=0;exitDy=0;" parent="1" source="oqIuJ54cnwWjOgzkzi1r-26" target="oqIuJ54cnwWjOgzkzi1r-5" edge="1">
          <mxGeometry x="-0.8545" y="-15" width="50" height="50" relative="1" as="geometry">
            <mxPoint x="228" y="703.37" as="sourcePoint" />
            <mxPoint x="190" y="503.37" as="targetPoint" />
            <mxPoint as="offset" />
          </mxGeometry>
        </mxCell>
        <mxCell id="oqIuJ54cnwWjOgzkzi1r-44" value="Has" style="rhombus;whiteSpace=wrap;html=1;" parent="1" vertex="1">
          <mxGeometry x="214" y="430" width="80" height="80" as="geometry" />
        </mxCell>
        <mxCell id="oqIuJ54cnwWjOgzkzi1r-46" value="" style="endArrow=none;html=1;rounded=0;" parent="1" source="oqIuJ54cnwWjOgzkzi1r-5" target="oqIuJ54cnwWjOgzkzi1r-44" edge="1">
          <mxGeometry width="50" height="50" relative="1" as="geometry">
            <mxPoint x="150" y="600" as="sourcePoint" />
            <mxPoint x="200" y="550" as="targetPoint" />
          </mxGeometry>
        </mxCell>
        <mxCell id="oqIuJ54cnwWjOgzkzi1r-49" value="1" style="edgeLabel;html=1;align=center;verticalAlign=middle;resizable=0;points=[];" parent="oqIuJ54cnwWjOgzkzi1r-46" vertex="1" connectable="0">
          <mxGeometry x="-0.002" y="2" relative="1" as="geometry">
            <mxPoint x="25" y="12" as="offset" />
          </mxGeometry>
        </mxCell>
        <mxCell id="oqIuJ54cnwWjOgzkzi1r-47" value="" style="endArrow=none;html=1;rounded=0;" parent="1" source="-fhKCmuMDrOjXcrdq4xB-24" target="oqIuJ54cnwWjOgzkzi1r-44" edge="1">
          <mxGeometry width="50" height="50" relative="1" as="geometry">
            <mxPoint x="165" y="482" as="sourcePoint" />
            <mxPoint x="225" y="481" as="targetPoint" />
          </mxGeometry>
        </mxCell>
        <mxCell id="oqIuJ54cnwWjOgzkzi1r-48" value="1" style="edgeLabel;html=1;align=center;verticalAlign=middle;resizable=0;points=[];" parent="oqIuJ54cnwWjOgzkzi1r-47" vertex="1" connectable="0">
          <mxGeometry x="0.1432" y="2" relative="1" as="geometry">
            <mxPoint x="-16" y="8" as="offset" />
          </mxGeometry>
        </mxCell>
        <mxCell id="oqIuJ54cnwWjOgzkzi1r-50" value="Comments" style="rhombus;whiteSpace=wrap;html=1;" parent="1" vertex="1">
          <mxGeometry x="214" y="643.37" width="80" height="80" as="geometry" />
        </mxCell>
        <mxCell id="oqIuJ54cnwWjOgzkzi1r-51" value="&lt;span&gt;closed at&lt;/span&gt;" style="ellipse;whiteSpace=wrap;html=1;fontStyle=0" parent="1" vertex="1">
          <mxGeometry x="310" y="517.52" width="80" height="40" as="geometry" />
        </mxCell>
        <mxCell id="oqIuJ54cnwWjOgzkzi1r-52" value="" style="endArrow=none;html=1;rounded=0;" parent="1" source="oqIuJ54cnwWjOgzkzi1r-51" target="-fhKCmuMDrOjXcrdq4xB-24" edge="1">
          <mxGeometry width="50" height="50" relative="1" as="geometry">
            <mxPoint x="510" y="690" as="sourcePoint" />
            <mxPoint x="560" y="640" as="targetPoint" />
          </mxGeometry>
        </mxCell>
        <mxCell id="oqIuJ54cnwWjOgzkzi1r-54" value="" style="endArrow=none;html=1;rounded=0;entryX=0.5;entryY=1;entryDx=0;entryDy=0;exitX=0;exitY=0.5;exitDx=0;exitDy=0;" parent="1" source="-fhKCmuMDrOjXcrdq4xB-47" target="-fhKCmuMDrOjXcrdq4xB-36" edge="1">
          <mxGeometry width="50" height="50" relative="1" as="geometry">
            <mxPoint x="560" y="680" as="sourcePoint" />
            <mxPoint x="610" y="630" as="targetPoint" />
            <Array as="points">
              <mxPoint x="560" y="680" />
            </Array>
          </mxGeometry>
        </mxCell>
        <mxCell id="oqIuJ54cnwWjOgzkzi1r-55" value="N" style="edgeLabel;html=1;align=center;verticalAlign=middle;resizable=0;points=[];" parent="1" vertex="1" connectable="0">
          <mxGeometry x="520.6470588235293" y="470" as="geometry">
            <mxPoint x="53" y="49" as="offset" />
          </mxGeometry>
        </mxCell>
        <mxCell id="oqIuJ54cnwWjOgzkzi1r-56" value="N" style="endArrow=none;html=1;rounded=0;exitX=0.5;exitY=0;exitDx=0;exitDy=0;" parent="1" source="oqIuJ54cnwWjOgzkzi1r-50" target="oqIuJ54cnwWjOgzkzi1r-5" edge="1">
          <mxGeometry x="-0.9027" y="10" width="50" height="50" relative="1" as="geometry">
            <mxPoint x="240" y="690" as="sourcePoint" />
            <mxPoint x="290" y="640" as="targetPoint" />
            <mxPoint y="1" as="offset" />
          </mxGeometry>
        </mxCell>
        <mxCell id="oqIuJ54cnwWjOgzkzi1r-57" value="N" style="endArrow=none;html=1;rounded=0;exitX=0.5;exitY=1;exitDx=0;exitDy=0;" parent="1" source="oqIuJ54cnwWjOgzkzi1r-50" target="-fhKCmuMDrOjXcrdq4xB-12" edge="1">
          <mxGeometry x="-0.8513" y="11" width="50" height="50" relative="1" as="geometry">
            <mxPoint x="264" y="653" as="sourcePoint" />
            <mxPoint x="375.7469077069459" y="830" as="targetPoint" />
            <mxPoint as="offset" />
          </mxGeometry>
        </mxCell>
        <mxCell id="oqIuJ54cnwWjOgzkzi1r-58" value="" style="endArrow=none;html=1;rounded=0;" parent="1" source="oqIuJ54cnwWjOgzkzi1r-59" target="oqIuJ54cnwWjOgzkzi1r-50" edge="1">
          <mxGeometry width="50" height="50" relative="1" as="geometry">
            <mxPoint x="320" y="660" as="sourcePoint" />
            <mxPoint x="290" y="680" as="targetPoint" />
          </mxGeometry>
        </mxCell>
        <mxCell id="oqIuJ54cnwWjOgzkzi1r-59" value="&lt;span&gt;text&lt;/span&gt;" style="ellipse;whiteSpace=wrap;html=1;fontStyle=0" parent="1" vertex="1">
          <mxGeometry x="290" y="613.37" width="80" height="40" as="geometry" />
        </mxCell>
        <mxCell id="oqIuJ54cnwWjOgzkzi1r-60" value="&lt;span&gt;created at&lt;/span&gt;" style="ellipse;whiteSpace=wrap;html=1;fontStyle=0" parent="1" vertex="1">
          <mxGeometry x="150" y="710" width="80" height="40" as="geometry" />
        </mxCell>
        <mxCell id="oqIuJ54cnwWjOgzkzi1r-61" value="" style="endArrow=none;html=1;rounded=0;" parent="1" source="oqIuJ54cnwWjOgzkzi1r-60" target="oqIuJ54cnwWjOgzkzi1r-50" edge="1">
          <mxGeometry width="50" height="50" relative="1" as="geometry">
            <mxPoint x="316" y="659" as="sourcePoint" />
            <mxPoint x="288" y="677" as="targetPoint" />
          </mxGeometry>
        </mxCell>
        <mxCell id="_nvPLyYYapYxIfVlu-a7-1" value="name" style="ellipse;whiteSpace=wrap;html=1;" parent="1" vertex="1">
          <mxGeometry x="840" y="360" width="80" height="40" as="geometry" />
        </mxCell>
        <mxCell id="_nvPLyYYapYxIfVlu-a7-2" value="" style="endArrow=none;html=1;rounded=0;" parent="1" source="_nvPLyYYapYxIfVlu-a7-1" target="-fhKCmuMDrOjXcrdq4xB-1" edge="1">
          <mxGeometry width="50" height="50" relative="1" as="geometry">
            <mxPoint x="650" y="530" as="sourcePoint" />
            <mxPoint x="700" y="480" as="targetPoint" />
          </mxGeometry>
        </mxCell>
        <mxCell id="_nvPLyYYapYxIfVlu-a7-3" value="&lt;u&gt;id&lt;/u&gt;" style="ellipse;whiteSpace=wrap;html=1;" parent="1" vertex="1">
          <mxGeometry x="980" y="738.37" width="80" height="40" as="geometry" />
        </mxCell>
        <mxCell id="_nvPLyYYapYxIfVlu-a7-4" value="" style="endArrow=none;html=1;rounded=0;" parent="1" source="_nvPLyYYapYxIfVlu-a7-3" target="RC9hor7PcypzpRkeTnEh-1" edge="1">
          <mxGeometry width="50" height="50" relative="1" as="geometry">
            <mxPoint x="1120" y="690" as="sourcePoint" />
            <mxPoint x="1090" y="690" as="targetPoint" />
          </mxGeometry>
        </mxCell>
        <mxCell id="_nvPLyYYapYxIfVlu-a7-5" value="RI1" style="text;html=1;align=center;verticalAlign=middle;whiteSpace=wrap;rounded=0;" parent="1" vertex="1">
          <mxGeometry x="1082.5" y="750" width="60" height="30" as="geometry" />
        </mxCell>
        <mxCell id="_nvPLyYYapYxIfVlu-a7-6" value="RI1" style="text;html=1;align=center;verticalAlign=middle;whiteSpace=wrap;rounded=0;" parent="1" vertex="1">
          <mxGeometry x="402" y="1151.29" width="60" height="30" as="geometry" />
        </mxCell>
        <mxCell id="_nvPLyYYapYxIfVlu-a7-7" value="&lt;u&gt;id&lt;/u&gt;" style="ellipse;whiteSpace=wrap;html=1;" parent="1" vertex="1">
          <mxGeometry x="1130" y="553.37" width="80" height="40" as="geometry" />
        </mxCell>
        <mxCell id="_nvPLyYYapYxIfVlu-a7-8" value="" style="endArrow=none;html=1;rounded=0;" parent="1" source="pdK5dS0LOdlDphh9CW6W-48" target="_nvPLyYYapYxIfVlu-a7-7" edge="1">
          <mxGeometry width="50" height="50" relative="1" as="geometry">
            <mxPoint x="950" y="590" as="sourcePoint" />
            <mxPoint x="1000" y="540" as="targetPoint" />
          </mxGeometry>
        </mxCell>
        <mxCell id="_nvPLyYYapYxIfVlu-a7-9" value="N" style="endArrow=none;html=1;rounded=0;" parent="1" target="YiIuWlqVmYQCmq5VNe0C-3" edge="1">
          <mxGeometry x="0.9844" y="-10" width="50" height="50" relative="1" as="geometry">
            <mxPoint x="20" y="860" as="sourcePoint" />
            <mxPoint x="1220" y="600" as="targetPoint" />
            <Array as="points">
              <mxPoint x="20" y="1200" />
              <mxPoint x="1220" y="1200" />
            </Array>
            <mxPoint as="offset" />
          </mxGeometry>
        </mxCell>
        <mxCell id="jjcyhBxNHtoWeeFB3hzC-1" value="&lt;span style=&quot;font-size: 20px;&quot;&gt;User&lt;/span&gt;" style="rounded=0;whiteSpace=wrap;html=1;" vertex="1" parent="1">
          <mxGeometry x="430" y="965" width="120" height="60" as="geometry" />
        </mxCell>
        <mxCell id="jjcyhBxNHtoWeeFB3hzC-2" value="&lt;span style=&quot;font-size: 20px;&quot;&gt;Operator&lt;/span&gt;" style="rounded=0;whiteSpace=wrap;html=1;" vertex="1" parent="1">
          <mxGeometry x="510" y="830" width="120" height="60" as="geometry" />
        </mxCell>
        <mxCell id="jjcyhBxNHtoWeeFB3hzC-8" value="" style="ellipse;whiteSpace=wrap;html=1;aspect=fixed;" vertex="1" parent="1">
          <mxGeometry x="470" y="905" width="40" height="40" as="geometry" />
        </mxCell>
        <mxCell id="jjcyhBxNHtoWeeFB3hzC-9" value="" style="endArrow=none;html=1;rounded=0;" edge="1" parent="1" source="jjcyhBxNHtoWeeFB3hzC-1" target="jjcyhBxNHtoWeeFB3hzC-8">
          <mxGeometry width="50" height="50" relative="1" as="geometry">
            <mxPoint x="550" y="1015" as="sourcePoint" />
            <mxPoint x="600" y="965" as="targetPoint" />
          </mxGeometry>
        </mxCell>
        <mxCell id="jjcyhBxNHtoWeeFB3hzC-10" value="" style="endArrow=none;html=1;rounded=0;" edge="1" parent="1" source="jjcyhBxNHtoWeeFB3hzC-8" target="-fhKCmuMDrOjXcrdq4xB-12">
          <mxGeometry width="50" height="50" relative="1" as="geometry">
            <mxPoint x="460" y="1010" as="sourcePoint" />
            <mxPoint x="436.9230769230767" y="890" as="targetPoint" />
          </mxGeometry>
        </mxCell>
        <mxCell id="jjcyhBxNHtoWeeFB3hzC-11" value="operates" style="rhombus;whiteSpace=wrap;html=1;" vertex="1" parent="1">
          <mxGeometry x="670" y="820" width="80" height="80" as="geometry" />
        </mxCell>
        <mxCell id="jjcyhBxNHtoWeeFB3hzC-12" value="" style="endArrow=none;html=1;rounded=0;" edge="1" parent="1" source="jjcyhBxNHtoWeeFB3hzC-2" target="jjcyhBxNHtoWeeFB3hzC-11">
          <mxGeometry width="50" height="50" relative="1" as="geometry">
            <mxPoint x="640" y="870" as="sourcePoint" />
            <mxPoint x="690" y="820" as="targetPoint" />
          </mxGeometry>
        </mxCell>
        <mxCell id="jjcyhBxNHtoWeeFB3hzC-13" value="N" style="edgeLabel;html=1;align=center;verticalAlign=middle;resizable=0;points=[];" vertex="1" connectable="0" parent="jjcyhBxNHtoWeeFB3hzC-12">
          <mxGeometry x="0.1056" y="-2" relative="1" as="geometry">
            <mxPoint x="8" y="-12" as="offset" />
          </mxGeometry>
        </mxCell>
        <mxCell id="jjcyhBxNHtoWeeFB3hzC-14" value="" style="endArrow=none;html=1;rounded=0;" edge="1" parent="1" source="jjcyhBxNHtoWeeFB3hzC-11" target="-fhKCmuMDrOjXcrdq4xB-47">
          <mxGeometry width="50" height="50" relative="1" as="geometry">
            <mxPoint x="640" y="870" as="sourcePoint" />
            <mxPoint x="690" y="820" as="targetPoint" />
          </mxGeometry>
        </mxCell>
        <mxCell id="jjcyhBxNHtoWeeFB3hzC-15" value="1" style="edgeLabel;html=1;align=center;verticalAlign=middle;resizable=0;points=[];" vertex="1" connectable="0" parent="jjcyhBxNHtoWeeFB3hzC-14">
          <mxGeometry x="-0.7522" y="-1" relative="1" as="geometry">
            <mxPoint x="9" y="3" as="offset" />
          </mxGeometry>
        </mxCell>
        <mxCell id="jjcyhBxNHtoWeeFB3hzC-17" value="" style="endArrow=none;html=1;rounded=0;" edge="1" parent="1" source="jjcyhBxNHtoWeeFB3hzC-2" target="jjcyhBxNHtoWeeFB3hzC-8">
          <mxGeometry width="50" height="50" relative="1" as="geometry">
            <mxPoint x="523.2142027436676" y="890" as="sourcePoint" />
            <mxPoint x="510" y="930" as="targetPoint" />
          </mxGeometry>
        </mxCell>
        <mxCell id="jjcyhBxNHtoWeeFB3hzC-19" value="views" style="ellipse;whiteSpace=wrap;html=1;" vertex="1" parent="1">
          <mxGeometry x="600.65" y="300" width="80" height="40" as="geometry" />
        </mxCell>
        <mxCell id="jjcyhBxNHtoWeeFB3hzC-20" value="" style="endArrow=none;html=1;rounded=0;" edge="1" parent="1" source="-fhKCmuMDrOjXcrdq4xB-1" target="jjcyhBxNHtoWeeFB3hzC-19">
          <mxGeometry width="50" height="50" relative="1" as="geometry">
            <mxPoint x="676" y="450" as="sourcePoint" />
            <mxPoint x="564" y="374" as="targetPoint" />
          </mxGeometry>
        </mxCell>
        <mxCell id="jjcyhBxNHtoWeeFB3hzC-25" value="isAvailable" style="ellipse;whiteSpace=wrap;html=1;" vertex="1" parent="1">
          <mxGeometry x="402" y="327.5" width="80" height="40" as="geometry" />
        </mxCell>
        <mxCell id="jjcyhBxNHtoWeeFB3hzC-27" value="" style="endArrow=none;html=1;rounded=0;" edge="1" parent="1" source="-fhKCmuMDrOjXcrdq4xB-1" target="jjcyhBxNHtoWeeFB3hzC-25">
          <mxGeometry width="50" height="50" relative="1" as="geometry">
            <mxPoint x="676" y="450" as="sourcePoint" />
            <mxPoint x="564" y="374" as="targetPoint" />
          </mxGeometry>
        </mxCell>
        <mxCell id="jjcyhBxNHtoWeeFB3hzC-35" value="&lt;span style=&quot;font-size: 20px;&quot;&gt;Pre-register&lt;/span&gt;" style="rounded=0;whiteSpace=wrap;html=1;" vertex="1" parent="1">
          <mxGeometry x="860" y="850" width="120" height="60" as="geometry" />
        </mxCell>
        <mxCell id="jjcyhBxNHtoWeeFB3hzC-36" value="" style="endArrow=none;html=1;rounded=0;" edge="1" parent="1" source="jjcyhBxNHtoWeeFB3hzC-2" target="jjcyhBxNHtoWeeFB3hzC-37">
          <mxGeometry width="50" height="50" relative="1" as="geometry">
            <mxPoint x="670" y="920" as="sourcePoint" />
            <mxPoint x="620" y="920" as="targetPoint" />
          </mxGeometry>
        </mxCell>
        <mxCell id="jjcyhBxNHtoWeeFB3hzC-37" value="phone number" style="ellipse;whiteSpace=wrap;html=1;" vertex="1" parent="1">
          <mxGeometry x="590" y="905" width="80" height="40" as="geometry" />
        </mxCell>
        <mxCell id="jjcyhBxNHtoWeeFB3hzC-42" value="name" style="ellipse;whiteSpace=wrap;html=1;" vertex="1" parent="1">
          <mxGeometry x="480.65" y="678.0200000000002" width="80" height="40" as="geometry" />
        </mxCell>
        <mxCell id="jjcyhBxNHtoWeeFB3hzC-43" value="" style="endArrow=none;html=1;rounded=0;" edge="1" parent="1" source="jjcyhBxNHtoWeeFB3hzC-42" target="-fhKCmuMDrOjXcrdq4xB-47">
          <mxGeometry width="50" height="50" relative="1" as="geometry">
            <mxPoint x="631" y="727" as="sourcePoint" />
            <mxPoint x="660" y="715" as="targetPoint" />
          </mxGeometry>
        </mxCell>
        <mxCell id="jjcyhBxNHtoWeeFB3hzC-45" value="" style="endArrow=none;html=1;rounded=0;" edge="1" parent="1" source="jjcyhBxNHtoWeeFB3hzC-35" target="jjcyhBxNHtoWeeFB3hzC-48">
          <mxGeometry width="50" height="50" relative="1" as="geometry">
            <mxPoint x="551" y="1122" as="sourcePoint" />
            <mxPoint x="988.3696963474599" y="933.1764304924691" as="targetPoint" />
          </mxGeometry>
        </mxCell>
        <mxCell id="jjcyhBxNHtoWeeFB3hzC-48" value="pre-operator" style="ellipse;whiteSpace=wrap;html=1;" vertex="1" parent="1">
          <mxGeometry x="827" y="930" width="80" height="40" as="geometry" />
        </mxCell>
        <mxCell id="jjcyhBxNHtoWeeFB3hzC-49" value="pre-store" style="ellipse;whiteSpace=wrap;html=1;" vertex="1" parent="1">
          <mxGeometry x="940" y="930" width="80" height="40" as="geometry" />
        </mxCell>
        <mxCell id="jjcyhBxNHtoWeeFB3hzC-50" value="" style="endArrow=none;html=1;rounded=0;" edge="1" parent="1" source="jjcyhBxNHtoWeeFB3hzC-35" target="jjcyhBxNHtoWeeFB3hzC-49">
          <mxGeometry width="50" height="50" relative="1" as="geometry">
            <mxPoint x="919" y="920" as="sourcePoint" />
            <mxPoint x="907" y="955" as="targetPoint" />
          </mxGeometry>
        </mxCell>
      </root>
    </mxGraphModel>
  </diagram>
</mxfile>
